<svg xmlns="http://www.w3.org/2000/svg" version="1.1" xmlns:xlink="http://www.w3.org/1999/xlink" xmlns:svgjs="http://svgjs.com/svgjs" width="1024.000000pt" height="1024.000000pt"><svg version="1.0" xmlns="http://www.w3.org/2000/svg" width="1024.000000pt" height="1024.000000pt" viewBox="0 0 1024.000000 1024.000000" preserveAspectRatio="xMidYMid meet">

<g transform="translate(0.000000,1024.000000) scale(0.100000,-0.100000)" fill="#000000" stroke="none">
<path d="M4875 9573 c-598 -37 -1192 -213 -1659 -492 -261 -156 -433 -289
-655 -506 -338 -331 -569 -644 -751 -1020 -101 -210 -201 -483 -188 -516 8
-20 227 -115 237 -103 5 5 36 74 69 154 217 524 456 883 839 1262 328 325 690
555 1133 721 707 264 1647 272 2379 21 450 -155 898 -439 1226 -775 227 -233
373 -437 522 -729 219 -428 318 -840 330 -1370 10 -446 -45 -773 -185 -1107
-45 -106 -124 -251 -266 -486 -214 -355 -430 -810 -535 -1127 -166 -498 -212
-1008 -136 -1500 23 -144 25 -150 45 -150 23 0 186 82 224 113 l29 24 -11 69
c-37 226 -40 606 -7 829 34 225 108 511 187 724 112 301 227 520 494 936 254
395 352 645 423 1075 32 197 41 315 41 560 0 324 -28 558 -104 865 -142 573
-468 1137 -888 1540 -603 578 -1313 895 -2197 980 -137 13 -447 18 -596 8z"></path>
<path d="M4877 9158 c-50 -18 -51 -97 -1 -113 17 -6 39 -16 48 -24 9 -8 18
-12 19 -10 11 15 28 89 25 109 -4 31 -52 51 -91 38z m41 -50 c-4 -27 -28 -36
-28 -10 0 20 8 32 22 32 5 0 8 -10 6 -22z"></path>
<path d="M5647 9143 c-4 -3 -7 -17 -7 -30 0 -18 5 -23 25 -23 29 0 50 31 33
48 -13 13 -41 16 -51 5z"></path>
<path d="M4554 9110 c-30 -12 -37 -47 -13 -71 10 -10 25 -16 34 -13 13 5 15
-17 15 -180 0 -179 -1 -186 -20 -186 -23 0 -26 -18 -6 -45 12 -16 29 -18 170
-19 l156 -1 0 28 c0 27 -1 27 -64 27 -34 0 -90 3 -124 6 l-60 7 -4 211 c-3
116 -8 219 -12 229 -9 18 -37 21 -72 7z m36 -14 c0 -2 3 -11 6 -19 4 -12 0
-14 -15 -10 -24 6 -29 33 -6 33 8 0 15 -2 15 -4z"></path>
<path d="M4660 9100 c-11 -11 -20 -29 -20 -40 0 -25 38 -60 65 -60 25 0 65 34
65 56 0 22 -46 64 -70 64 -11 0 -29 -9 -40 -20z m54 -29 c9 -14 -4 -41 -20
-41 -15 0 -17 10 -8 34 7 18 20 21 28 7z"></path>
<path d="M5050 8976 l0 -134 50 -11 c68 -15 60 -17 126 34 32 25 68 45 82 45
35 0 89 -28 115 -60 22 -26 27 -27 73 -20 89 15 84 6 84 151 l0 130 -122 -3
-123 -3 0 -65 c0 -36 4 -75 8 -87 7 -20 5 -23 -17 -23 -52 0 -56 6 -56 96 l0
84 -110 0 -110 0 0 -134z"></path>
<path d="M4244 9029 c28 -22 35 -59 12 -59 -8 0 -17 8 -19 18 -2 9 -3 7 -2 -6
1 -12 -2 -25 -6 -28 -15 -9 -10 -61 7 -75 14 -11 18 -10 30 6 19 26 18 35 -5
35 -25 0 -32 12 -20 30 7 13 10 13 18 1 6 -10 13 -11 27 -2 16 9 16 10 3 11
-12 0 -15 7 -12 24 5 25 -26 66 -48 66 -7 0 0 -9 15 -21z"></path>
<path d="M4355 9040 c3 -5 8 -10 11 -10 2 0 4 5 4 10 0 6 -5 10 -11 10 -5 0
-7 -4 -4 -10z"></path>
<path d="M5773 9014 c-44 -22 -78 -91 -68 -141 8 -43 59 -99 100 -109 40 -10
114 24 142 65 75 111 -51 245 -174 185z"></path>
<path d="M4361 9004 c0 -11 3 -14 6 -6 3 7 2 16 -1 19 -3 4 -6 -2 -5 -13z"></path>
<path d="M4186 8995 c-3 -8 -1 -15 4 -15 6 0 10 7 10 15 0 8 -2 15 -4 15 -2 0
-6 -7 -10 -15z"></path>
<path d="M4389 8993 c-13 -16 -12 -17 4 -4 9 7 17 15 17 17 0 8 -8 3 -21 -13z"></path>
<path d="M4320 8989 c0 -5 5 -7 10 -4 6 3 10 8 10 11 0 2 -4 4 -10 4 -5 0 -10
-5 -10 -11z"></path>
<path d="M4130 8986 c0 -2 7 -6 15 -10 8 -3 15 -1 15 4 0 6 -7 10 -15 10 -8 0
-15 -2 -15 -4z"></path>
<path d="M3841 8954 c-27 -34 -27 -64 -1 -92 32 -34 82 -30 114 9 31 37 32 49
5 83 -16 20 -29 26 -59 26 -30 0 -43 -6 -59 -26z"></path>
<path d="M4355 8970 c-4 -6 -4 -14 0 -19 3 -5 0 -13 -6 -16 -6 -4 -13 2 -16
14 -3 11 -9 18 -14 15 -5 -2 -1 -23 8 -45 15 -39 15 -41 -6 -60 -30 -28 -27
-46 7 -41 19 2 33 -2 43 -14 12 -16 12 -17 -3 -11 -9 3 -21 0 -27 -7 -9 -10
-5 -18 15 -31 14 -9 28 -14 31 -11 3 3 -2 8 -11 12 -20 8 -21 24 -2 24 27 0
26 18 -3 49 -16 17 -25 31 -20 31 5 0 9 9 9 21 0 11 5 17 10 14 6 -3 10 1 10
9 0 9 -5 16 -10 16 -6 0 -3 11 5 24 14 21 14 24 1 29 -9 4 -18 2 -21 -3z"></path>
<path d="M4120 8969 c0 -3 12 -30 27 -60 16 -33 28 -48 30 -38 2 9 -8 34 -22
55 -28 42 -35 50 -35 43z"></path>
<path d="M6140 8954 c-11 -12 -10 -18 3 -32 16 -15 18 -15 33 0 19 18 12 48
-9 48 -8 0 -20 -7 -27 -16z"></path>
<path d="M4424 8914 c-18 -37 -18 -42 -4 -29 9 8 19 13 22 10 3 -3 8 1 12 10
3 10 2 13 -5 10 -6 -4 -7 3 -3 19 9 38 2 31 -22 -20z"></path>
<path d="M4758 8953 c-60 -3 -68 -6 -68 -23 0 -18 7 -20 65 -20 l65 0 0 -35
c0 -34 -12 -46 -25 -25 -16 26 -87 1 -104 -37 -27 -60 8 -113 76 -113 66 0
111 46 106 108 0 6 -1 44 -2 82 -1 66 -2 70 -23 68 -13 -1 -53 -3 -90 -5z m43
-153 c27 -15 24 -39 -7 -50 -26 -10 -64 1 -64 20 0 37 31 51 71 30z"></path>
<path d="M4181 8931 c-8 -5 -9 -11 -3 -15 5 -3 12 1 16 9 6 17 6 18 -13 6z"></path>
<path d="M6271 8914 c-28 -35 -26 -42 15 -88 l34 -40 13 33 c12 32 13 32 60
26 l49 -7 -4 28 c-3 27 -5 29 -46 26 -37 -2 -44 1 -54 23 -15 32 -41 32 -67
-1z"></path>
<path d="M5272 8853 c-7 -3 -19 -18 -28 -34 -42 -82 65 -151 131 -84 30 29 31
50 5 93 -17 27 -25 32 -57 31 -21 0 -44 -3 -51 -6z m87 -45 c22 -38 2 -78 -38
-78 -50 0 -79 61 -45 95 24 23 66 15 83 -17z"></path>
<path d="M6168 8840 c-12 -11 -32 -26 -42 -34 -24 -17 -15 -66 13 -66 19 0 71
-43 71 -58 0 -6 -62 -12 -137 -14 -114 -4 -146 -9 -183 -26 -66 -31 -77 -29
-85 18 -5 27 -12 40 -22 40 -14 0 -15 -15 -9 -125 l6 -125 -55 0 -55 0 0 45 0
45 -45 0 -45 0 0 -45 c0 -25 -3 -44 -7 -44 -5 1 -24 1 -44 0 -30 -1 -37 -5
-41 -24 -7 -38 1 -47 47 -47 l44 0 3 -47 3 -48 40 0 40 0 3 48 3 47 54 0 c48
0 55 3 60 23 5 19 13 22 60 23 l55 2 0 -49 0 -49 -60 0 -59 0 -5 -32 c-2 -18
-10 -60 -16 -93 -24 -129 -24 -130 8 -166 26 -29 32 -32 46 -20 9 7 16 22 16
32 0 17 9 19 85 19 47 0 85 -4 85 -9 0 -5 15 -26 34 -45 28 -31 40 -36 77 -36
33 0 51 6 71 25 25 23 35 25 117 25 81 0 91 2 101 20 10 18 9 20 -12 15 -13
-2 -54 -2 -93 3 -53 5 -71 11 -73 23 -2 13 10 19 57 27 77 14 151 46 151 66 0
21 -13 20 -95 -9 -98 -34 -138 -33 -167 5 -12 17 -28 30 -35 30 -16 0 -89 -44
-120 -73 -16 -14 -49 -24 -110 -33 -97 -15 -116 -9 -111 35 3 25 5 26 71 24
l67 -2 0 54 c0 29 5 57 10 60 6 4 8 11 5 16 -4 5 16 9 44 9 46 0 51 -2 57 -25
4 -16 13 -25 25 -25 15 0 19 7 19 39 l0 40 43 -24 c51 -30 73 -31 87 -6 18 35
12 41 -45 41 -42 0 -56 4 -64 18 -17 32 5 52 57 52 66 0 80 11 56 44 -11 14
-22 26 -26 26 -4 0 -30 -13 -58 -30 -52 -31 -67 -34 -94 -24 -23 9 -20 41 5
47 32 8 22 53 -11 50 -85 -6 -122 -17 -137 -39 -12 -18 -24 -24 -54 -24 l-39
0 0 60 c0 59 1 60 28 61 15 1 34 1 43 0 9 -1 38 10 64 24 41 21 61 25 138 25
l89 0 -6 -26 c-9 -36 2 -64 25 -64 16 0 19 7 19 45 0 41 2 45 23 45 29 0 57
-29 57 -59 0 -12 -12 -34 -27 -49 l-28 -27 33 -69 c19 -38 36 -84 39 -102 5
-30 1 -38 -36 -72 -43 -40 -44 -52 -3 -52 59 0 112 60 112 127 0 42 -36 105
-70 123 -26 14 -25 21 5 66 44 65 30 154 -25 154 -21 0 -30 6 -35 23 -4 12
-21 37 -38 55 -31 32 -31 32 -14 62 29 48 7 66 -35 30z m-158 -386 c0 -21 -4
-24 -41 -24 -36 0 -40 2 -37 22 2 16 12 25 33 29 38 7 45 3 45 -27z m38 -86
c3 -25 1 -26 -52 -30 l-56 -3 0 33 0 33 53 -3 c48 -3 52 -5 55 -30z m-148
-108 l0 -50 -45 0 c-49 0 -52 5 -39 67 5 27 10 30 45 31 l39 2 0 -50z m257
-121 c17 -15 17 -70 -1 -94 -15 -21 -72 -23 -92 -3 -8 7 -16 27 -20 45 -9 43
25 78 69 69 16 -3 36 -11 44 -17z"></path>
<path d="M3686 8834 c-22 -21 -20 -57 3 -78 25 -23 52 -17 70 15 13 24 13 29
-2 53 -20 29 -48 34 -71 10z"></path>
<path d="M4157 8810 c-15 -21 -23 -41 -18 -45 5 -3 18 11 30 30 11 19 27 35
36 35 18 0 20 -21 3 -38 -6 -6 -8 -15 -4 -19 4 -4 11 -1 16 7 8 13 10 12 10
-2 0 -9 4 -19 9 -23 6 -3 6 7 1 26 -12 42 -4 53 21 28 18 -18 19 -24 9 -50 -7
-16 -10 -32 -7 -36 3 -3 9 6 13 21 7 31 11 32 38 9 20 -17 20 -17 6 2 -8 11
-23 28 -32 38 -9 11 -14 25 -12 32 6 13 -25 25 -67 25 -20 0 -33 -10 -52 -40z"></path>
<path d="M4430 8821 c7 -14 7 -21 0 -21 -5 0 -10 -4 -10 -10 0 -14 27 -1 34
16 3 8 -4 18 -15 25 -19 10 -20 9 -9 -10z"></path>
<path d="M6490 8788 c-83 -43 -105 -146 -46 -223 45 -58 113 -72 186 -36 33
16 41 17 51 5 17 -21 56 -17 62 6 4 17 0 20 -29 20 -32 0 -33 1 -24 26 6 14
10 49 10 79 0 44 -5 59 -27 86 -29 34 -78 59 -116 59 -12 0 -43 -10 -67 -22z
m135 -50 c34 -30 42 -84 21 -130 -41 -85 -156 -74 -186 17 -14 42 -6 71 28
108 34 36 98 38 137 5z"></path>
<path d="M3900 8767 c-58 -29 -62 -109 -6 -135 23 -12 34 -12 64 0 63 24 70
103 12 133 -35 18 -38 18 -70 2z"></path>
<path d="M5052 8656 l3 -99 40 -15 c54 -21 210 -22 250 -2 17 9 31 25 33 38 3
20 9 22 70 22 37 0 84 3 105 6 l37 7 0 68 0 69 -70 0 c-69 0 -72 -1 -108 -39
-21 -22 -50 -43 -66 -47 -46 -11 -102 12 -131 54 -25 37 -26 37 -95 37 l-71 0
3 -99z"></path>
<path d="M3546 8709 c-33 -26 -35 -75 -5 -113 29 -37 70 -35 103 5 34 40 33
64 -3 100 -35 34 -59 36 -95 8z"></path>
<path d="M4330 8726 c0 -2 8 -10 18 -17 15 -13 16 -12 3 4 -13 16 -21 21 -21
13z"></path>
<path d="M6804 8696 c-8 -32 2 -46 31 -46 28 0 43 34 25 55 -19 23 -49 18 -56
-9z"></path>
<path d="M3303 8610 l-52 -78 107 -4 c59 -2 108 -4 109 -3 4 1 -97 160 -104
162 -4 1 -31 -34 -60 -77z m90 -29 l18 -31 -45 0 c-50 0 -54 6 -30 51 17 34
27 30 57 -20z"></path>
<path d="M4035 8650 c-39 -75 -168 -82 -221 -11 -10 13 -15 13 -37 -2 -15 -9
-42 -31 -61 -47 l-35 -31 16 -44 c22 -66 92 -115 166 -115 15 0 18 -7 15 -42
-2 -31 -8 -44 -20 -46 -12 -2 -17 5 -20 25 -2 21 -10 29 -33 33 -64 13 -115
58 -136 118 l-11 34 -25 -24 c-52 -49 -101 -165 -89 -212 3 -11 23 -45 45 -73
39 -52 63 -112 76 -185 3 -21 7 -38 8 -38 1 0 34 7 72 15 39 8 100 15 138 15
64 0 68 -1 78 -27 l10 -27 74 80 c48 51 81 97 94 129 10 28 33 77 51 110 28
53 31 67 28 125 -2 45 -12 83 -31 121 -31 63 -101 149 -123 149 -7 0 -20 -13
-29 -30z m133 -190 c2 -12 -10 -15 -50 -17 -69 -2 -103 -34 -103 -97 0 -49 22
-81 69 -101 26 -11 27 -13 10 -19 -29 -9 -76 7 -96 35 -56 75 -30 169 57 209
32 15 109 8 113 -10z m-318 -199 c76 -34 98 -141 29 -141 -5 0 -9 18 -9 40 0
53 -27 80 -80 80 -34 0 -42 -4 -55 -31 -19 -35 -39 -34 -43 3 -2 18 5 32 24
47 33 26 79 27 134 2z"></path>
<path d="M4360 8585 c0 -9 -4 -14 -9 -11 -10 7 -28 -14 -25 -29 6 -32 17 -54
25 -49 5 3 9 -1 9 -9 0 -8 8 -21 17 -28 11 -10 14 -10 9 -1 -12 21 3 33 26 21
18 -10 20 -9 15 4 -4 10 -1 14 6 11 8 -3 12 9 13 36 0 32 -3 39 -14 35 -10 -4
-13 0 -9 14 3 12 0 18 -9 17 -23 -3 -26 -13 -13 -38 11 -21 11 -22 -4 -9 -10
7 -17 19 -17 27 0 7 -4 16 -10 19 -5 3 -10 -1 -10 -10z m30 -75 c0 -5 -5 -10
-11 -10 -5 0 -7 5 -4 10 3 6 8 10 11 10 2 0 4 -4 4 -10z"></path>
<path d="M6950 8573 c-42 -15 -90 -58 -104 -94 -9 -22 -16 -42 -16 -44 0 -3
36 -5 80 -5 l80 0 0 75 c0 76 -3 81 -40 68z"></path>
<path d="M7010 8500 l0 -70 53 -1 c28 0 60 -2 70 -4 13 -2 17 4 17 26 0 39
-76 119 -113 119 -27 0 -27 -1 -27 -70z"></path>
<path d="M4536 8460 c-96 -38 -139 -101 -155 -229 -6 -45 -14 -87 -17 -93 -8
-12 26 -3 68 18 20 10 28 24 33 56 12 75 44 135 102 188 76 71 63 97 -31 60z"></path>
<path d="M4790 8467 c0 -8 25 -31 56 -52 61 -42 108 -112 119 -177 8 -43 -3
-121 -15 -113 -4 2 -26 -13 -50 -35 -40 -37 -42 -42 -36 -77 3 -21 6 -64 6
-95 l0 -58 43 0 c23 0 53 -7 65 -16 22 -15 22 -15 22 28 -1 40 -12 130 -26
205 -5 24 -1 37 16 55 12 13 33 43 48 67 57 98 12 219 -100 266 -47 19 -148
21 -148 2z"></path>
<path d="M3053 8443 c-24 -16 -29 -50 -17 -112 7 -31 24 -43 24 -16 0 8 13 21
28 29 28 15 61 46 48 46 -4 0 -20 -7 -37 -15 -35 -18 -49 -13 -49 19 0 47 62
73 94 40 9 -8 16 -12 16 -7 0 33 -69 43 -107 16z"></path>
<path d="M5197 8443 c-17 -16 -1 -19 93 -18 113 2 107 8 113 -90 3 -46 4 -45
5 13 3 98 -2 102 -112 102 -51 0 -96 -3 -99 -7z"></path>
<path d="M3244 8405 c-21 -31 -12 -69 21 -91 41 -27 95 4 95 55 0 59 -84 85
-116 36z"></path>
<path d="M5186 8350 c4 -36 7 -66 9 -68 1 -1 23 3 49 10 35 9 56 9 88 1 54
-15 59 -10 17 16 -35 22 -69 27 -69 12 0 -5 -10 -11 -22 -14 -13 -2 -31 -8
-40 -12 -16 -6 -18 -1 -19 36 0 24 -5 53 -10 64 -6 13 -7 -2 -3 -45z"></path>
<path d="M6714 8396 c-10 -26 1 -51 23 -54 25 -4 46 27 37 52 -8 20 -53 21
-60 2z"></path>
<path d="M6897 8402 c-65 -3 -68 -4 -61 -25 17 -56 87 -117 133 -117 19 0 21
5 21 69 0 47 -4 70 -12 72 -7 2 -44 3 -81 1z"></path>
<path d="M7053 8403 l-43 -4 0 -70 c0 -51 3 -69 13 -69 26 0 99 61 113 95 24
59 27 58 -83 48z"></path>
<path d="M7163 8380 c-12 -32 -8 -60 8 -60 14 0 22 49 13 71 -8 18 -10 17 -21
-11z"></path>
<path d="M4693 8370 c-77 -3 -127 -10 -134 -17 -7 -7 -11 -14 -8 -15 2 -2 76
-1 164 2 151 5 158 6 130 20 -24 12 -56 14 -152 10z"></path>
<path d="M6584 8316 c-9 -23 -1 -48 19 -60 25 -16 52 4 52 40 0 25 -4 29 -33
32 -22 2 -34 -2 -38 -12z"></path>
<path d="M3082 8293 c-15 -6 -6 -23 14 -23 8 0 14 7 14 15 0 15 -6 17 -28 8z"></path>
<path d="M4533 8293 c-40 -16 8 -22 182 -25 107 -2 195 -2 195 -1 0 1 -7 9
-16 17 -13 13 -43 16 -182 15 -92 0 -173 -3 -179 -6z"></path>
<path d="M7246 8273 c-6 -14 -5 -15 5 -6 7 7 10 15 7 18 -3 3 -9 -2 -12 -12z"></path>
<path d="M7281 8274 c0 -11 3 -14 6 -6 3 7 2 16 -1 19 -3 4 -6 -2 -5 -13z"></path>
<path d="M7195 8270 c3 -5 8 -10 11 -10 2 0 4 5 4 10 0 6 -5 10 -11 10 -5 0
-7 -4 -4 -10z"></path>
<path d="M7314 8245 c-24 -37 -12 -40 18 -5 17 20 21 30 12 30 -7 0 -21 -11
-30 -25z"></path>
<path d="M7207 8226 c15 -13 30 -23 32 -20 5 4 -41 43 -52 44 -4 0 5 -11 20
-24z"></path>
<path d="M7132 8224 c-11 -12 -10 -15 3 -20 22 -9 40 10 23 23 -9 8 -17 7 -26
-3z"></path>
<path d="M4517 8223 c-20 -19 9 -23 176 -23 146 0 187 3 203 15 17 13 -2 14
-177 15 -108 0 -199 -3 -202 -7z"></path>
<path d="M7331 8201 c-11 -11 -24 -15 -31 -11 -15 9 -82 -19 -74 -32 8 -13 18
-10 42 13 23 21 28 17 35 -26 1 -11 6 -25 10 -32 4 -7 0 -13 -10 -16 -14 -4
-13 -5 4 -6 12 0 23 -6 25 -12 6 -18 58 8 57 28 0 11 -3 13 -6 6 -2 -7 -16
-13 -29 -13 -19 0 -24 5 -24 25 0 18 4 23 15 19 8 -4 15 -2 15 4 0 5 -7 12
-15 16 -8 3 -15 13 -15 22 0 13 8 15 40 12 24 -2 39 0 37 7 -6 17 -57 15 -76
-4z"></path>
<path d="M5550 8187 c-46 -31 -110 -54 -190 -67 -146 -25 -205 -102 -225 -297
l-7 -63 30 0 c64 0 115 -28 179 -97 61 -67 62 -68 77 -47 11 16 30 23 71 27
80 8 101 25 115 92 6 30 10 77 9 103 -3 42 -1 47 19 50 27 4 28 17 2 64 -15
29 -19 54 -18 115 2 78 -7 143 -20 143 -4 0 -23 -11 -42 -23z"></path>
<path d="M2860 7870 l0 -330 364 0 c330 0 365 2 368 16 2 9 2 95 0 190 -3 165
-4 174 -22 174 -19 0 -20 -8 -20 -175 l0 -175 -60 0 -60 0 0 38 c0 20 -3 60
-6 88 l-6 51 35 7 c36 7 47 21 47 62 0 16 -9 28 -30 39 -16 9 -30 22 -30 29 0
23 28 70 46 76 14 5 12 10 -10 37 -27 32 -32 53 -17 69 19 19 16 53 -8 78 -34
36 -22 41 23 11 32 -22 35 -23 26 -5 -25 47 -38 48 -347 50 l-293 1 0 -331z
m493 293 c-25 -9 -13 -41 22 -62 49 -29 46 -45 -8 -37 -45 7 -57 1 -70 -37 -9
-25 38 -67 73 -67 16 0 38 10 51 24 13 14 27 22 32 19 12 -7 -59 -73 -79 -73
-9 0 -37 16 -60 36 -50 40 -54 60 -24 119 11 22 20 47 20 57 0 18 39 41 50 30
3 -2 -1 -7 -7 -9z m-204 -46 c10 -23 26 -48 35 -56 9 -7 16 -24 16 -37 0 -18
8 -27 28 -34 43 -16 56 -25 72 -53 14 -25 13 -28 -18 -58 -18 -17 -32 -42 -32
-55 0 -23 6 -27 68 -39 17 -4 32 -10 32 -14 0 -4 -22 -20 -50 -35 -51 -28 -93
-71 -87 -90 8 -24 40 -16 77 18 22 20 45 36 50 36 6 0 10 -28 10 -65 l0 -65
-50 0 c-54 0 -94 15 -122 47 -16 18 -16 21 12 63 28 43 29 45 10 48 -11 2 -37
-10 -58 -25 -20 -16 -54 -40 -75 -52 -21 -13 -44 -36 -52 -52 -14 -26 -20 -29
-65 -29 l-50 0 0 295 0 295 115 0 116 0 18 -43z m-18 -524 c-10 -17 -10 -16
-11 3 0 23 13 41 18 25 2 -6 -1 -18 -7 -28z"></path>
<path d="M2972 8028 c-30 -30 -3 -51 29 -22 23 20 53 11 68 -22 12 -27 8 -44
-12 -44 -7 -1 -30 -18 -53 -38 -39 -35 -40 -39 -30 -69 20 -59 40 -73 101 -73
75 0 95 20 95 95 0 58 -24 120 -63 163 -16 17 -31 22 -72 22 -28 0 -56 -5 -63
-12z"></path>
<path d="M4236 8179 c-30 -43 20 -93 63 -63 27 20 27 49 -1 68 -30 21 -44 20
-62 -5z"></path>
<path d="M7160 8180 c0 -5 -11 -12 -25 -16 -30 -7 -31 -14 -6 -36 16 -14 20
-14 25 -2 3 8 12 14 21 14 13 0 14 -4 5 -20 -6 -11 -17 -20 -25 -20 -7 0 -17
-5 -21 -12 -5 -7 0 -9 14 -6 16 4 19 2 15 -11 -3 -9 4 -2 15 14 30 45 32 86 5
96 -14 5 -23 5 -23 -1z"></path>
<path d="M7397 8174 c-12 -13 -8 -24 11 -25 15 0 15 -1 0 -7 -15 -6 -15 -9 3
-31 19 -23 19 -23 19 -2 0 13 6 21 16 21 14 0 14 3 4 15 -7 8 -18 15 -25 15
-8 0 -15 5 -17 11 -2 5 -7 7 -11 3z"></path>
<path d="M6606 8145 c-88 -37 -108 -59 -63 -70 13 -4 44 3 71 14 76 33 117 36
143 11 45 -42 41 -66 -21 -129 -51 -52 -71 -91 -46 -91 6 0 10 -4 10 -10 0
-16 -93 -12 -118 6 -32 22 -27 39 25 81 82 67 123 105 123 114 0 32 -118 -27
-187 -94 -40 -38 -42 -69 -8 -119 59 -87 179 -75 313 31 64 51 75 83 38 112
-15 12 -31 38 -37 62 -12 48 -24 66 -59 90 -35 25 -113 21 -184 -8z m218 -190
c5 -13 -30 -43 -92 -79 -25 -15 16 51 45 73 34 25 39 25 47 6z"></path>
<path d="M4520 8151 c0 -17 33 -21 183 -21 118 1 156 4 171 15 18 13 -1 15
-167 15 -103 0 -187 -4 -187 -9z"></path>
<path d="M7050 8140 c0 -11 4 -20 10 -20 5 0 7 7 4 15 -7 18 7 20 24 3 9 -9
12 -8 12 5 0 11 -8 17 -25 17 -18 0 -25 -5 -25 -20z"></path>
<path d="M7250 8116 c0 -20 -57 -66 -83 -67 -17 -1 -18 -2 -4 -6 9 -2 17 -14
17 -26 0 -12 5 -29 11 -37 7 -11 8 -5 3 23 -5 28 -3 37 7 37 19 0 69 47 69 65
0 8 -4 17 -10 20 -5 3 -10 0 -10 -9z"></path>
<path d="M3507 8112 c-14 -3 -16 -7 -6 -18 12 -15 39 -19 39 -6 0 16 -16 28
-33 24z"></path>
<path d="M7080 8100 c0 -5 5 -10 10 -10 6 0 10 5 10 10 0 6 -4 10 -10 10 -5 0
-10 -4 -10 -10z"></path>
<path d="M4450 8080 c-12 -12 -26 -33 -32 -48 -11 -27 -20 -268 -11 -310 l5
-22 292 2 291 3 3 47 c2 37 -1 51 -17 67 -27 27 -41 27 -141 -9 -108 -38 -161
-38 -268 0 -64 22 -89 27 -108 20 -31 -12 -34 -12 -34 0 0 5 21 16 48 23 l47
14 3 105 c3 104 2 105 -23 116 -33 15 -31 16 -55 -8z"></path>
<path d="M4636 8069 c-99 -78 -58 -249 59 -249 41 0 94 29 110 61 8 15 15 51
15 80 0 46 -4 55 -39 90 -32 32 -46 39 -78 39 -26 0 -50 -8 -67 -21z m119 -54
c43 -42 23 -137 -30 -151 -59 -15 -105 27 -105 94 0 74 84 109 135 57z"></path>
<path d="M3475 8050 c10 -35 32 -57 45 -44 7 7 0 20 -21 40 -31 29 -31 29 -24
4z"></path>
<path d="M7092 8038 c5 -15 28 -23 28 -10 0 5 -7 13 -16 16 -10 4 -14 1 -12
-6z"></path>
<path d="M7300 8041 c0 -6 11 -22 23 -34 13 -12 27 -29 30 -37 5 -13 6 -13 6
1 1 8 -12 31 -29 49 -16 18 -30 28 -30 21z"></path>
<path d="M7253 8032 c-11 -7 -7 -62 6 -62 3 0 6 16 6 35 0 19 0 35 0 35 0 0
-5 -4 -12 -8z"></path>
<path d="M7359 8028 c23 -6 37 -6 44 1 8 8 -2 11 -33 10 l-45 -1 34 -10z"></path>
<path d="M7512 8008 c3 -33 3 -33 66 -36 38 -2 62 1 62 8 0 6 -23 10 -54 10
-40 0 -55 4 -60 16 -5 14 2 16 54 12 45 -3 60 -1 60 9 0 9 -18 13 -66 13 l-65
0 3 -32z"></path>
<path d="M2574 8005 c-18 -15 -18 -16 6 -13 14 1 30 -1 37 -5 10 -6 30 10 22
17 -15 14 -48 14 -65 1z"></path>
<path d="M2660 8010 c20 -13 33 -13 25 0 -3 6 -14 10 -23 10 -15 0 -15 -2 -2
-10z"></path>
<path d="M4175 7970 c7 -23 -4 -26 -24 -7 -11 10 -13 9 -7 -6 3 -10 6 -21 6
-23 0 -2 7 -4 15 -4 19 0 31 -46 16 -64 -10 -12 -6 -26 10 -26 7 0 22 39 20
53 -1 5 7 16 18 25 23 20 37 62 22 62 -6 0 -11 -9 -11 -20 0 -13 -7 -20 -20
-20 -15 0 -20 7 -20 25 0 16 -6 25 -16 25 -11 0 -14 -6 -9 -20z"></path>
<path d="M2530 7960 c-8 -11 -22 -20 -31 -20 -19 0 -33 -26 -22 -42 3 -6 2 -9
-3 -6 -5 3 -16 -9 -24 -26 -15 -32 -15 -32 7 -28 19 4 22 -1 25 -39 2 -31 7
-43 17 -41 22 5 51 -8 51 -23 0 -8 6 -12 14 -9 17 7 29 -36 20 -73 -4 -16 -3
-25 1 -21 4 4 11 22 15 40 l7 33 16 -35 16 -35 -5 38 c-4 23 -2 43 6 52 17 20
56 19 64 -1 4 -9 9 -14 12 -11 3 3 1 14 -4 24 -13 24 -5 43 19 43 11 0 19 7
20 18 0 14 2 14 8 -3 7 -16 9 -13 12 17 5 42 -13 72 -49 83 -12 3 -22 12 -21
18 4 34 -2 47 -22 47 -12 0 -28 -8 -35 -17 -13 -17 -13 -17 -14 0 0 15 -6 17
-35 13 -24 -4 -37 -1 -42 9 -7 13 -11 12 -23 -5z m25 -47 c-9 -37 -23 -53 -46
-53 -23 0 -25 23 -4 40 8 7 15 19 15 26 0 8 9 14 21 14 18 0 20 -4 14 -27z
m82 -29 c-3 -3 -12 -4 -19 -1 -8 3 -5 6 6 6 11 1 17 -2 13 -5z m107 -20 c20
-20 20 -30 0 -38 -22 -9 -34 1 -34 30 0 28 12 31 34 8z m-134 -15 c0 -11 -4
-17 -10 -14 -5 3 -10 3 -10 -2 0 -4 -3 -18 -6 -29 -7 -27 20 -39 41 -18 8 9
15 11 15 5 0 -6 5 -11 10 -11 6 0 10 6 10 14 0 7 7 19 15 26 8 7 12 17 9 24
-3 6 4 0 15 -13 12 -13 21 -27 21 -31 0 -26 -93 -60 -134 -49 -34 9 -82 53
-89 80 -7 25 -2 24 39 -7 25 -20 34 -23 34 -11 0 8 7 20 15 27 8 7 12 16 9 21
-3 5 0 9 5 9 6 0 11 -9 11 -21z"></path>
<path d="M2485 7960 c-3 -5 -1 -10 4 -10 6 0 11 5 11 10 0 6 -2 10 -4 10 -3 0
-8 -4 -11 -10z"></path>
<path d="M2740 7948 c0 -30 15 -46 23 -24 3 8 -1 22 -8 33 -13 17 -14 16 -15
-9z"></path>
<path d="M4257 7916 c-6 -16 2 -28 14 -20 12 7 11 34 0 34 -5 0 -11 -6 -14
-14z"></path>
<path d="M5862 7789 c-48 -102 -70 -159 -61 -159 2 0 28 9 57 20 31 12 76 20
112 20 33 0 60 2 60 5 0 13 -104 225 -110 225 -3 0 -30 -50 -58 -111z"></path>
<path d="M6308 7887 c-88 -28 -101 -76 -38 -133 22 -20 40 -43 40 -52 0 -17
-107 -126 -153 -156 -26 -18 -28 -18 -54 -1 -40 27 -100 24 -158 -5 -61 -31
-85 -73 -85 -147 0 -49 2 -53 24 -53 12 0 37 -5 54 -11 26 -9 34 -19 42 -52
21 -79 30 -102 60 -147 l31 -45 -6 60 c-8 77 9 152 42 188 39 40 64 35 117
-24 26 -28 50 -49 53 -45 18 17 -38 193 -66 210 -5 4 -20 -7 -33 -23 l-23 -30
-38 34 c-22 19 -51 44 -65 55 l-27 21 25 -6 c14 -4 30 -13 35 -19 6 -7 22 -20
37 -30 l26 -17 101 92 c56 51 101 96 101 101 0 16 27 7 50 -17 26 -27 26 -26
-33 -87 -15 -15 -16 -22 -6 -34 21 -26 48 -14 119 52 88 83 91 115 10 80 -21
-9 -170 143 -170 173 0 38 41 25 95 -29 52 -53 80 -62 90 -30 9 28 -27 76 -83
111 -50 32 -59 33 -114 16z"></path>
<path d="M4140 7880 c0 -5 5 -10 10 -10 6 0 10 5 10 10 0 6 -4 10 -10 10 -5 0
-10 -4 -10 -10z"></path>
<path d="M4240 7859 c7 -11 14 -19 16 -16 7 7 -7 37 -17 37 -6 0 -5 -9 1 -21z"></path>
<path d="M3804 7833 c-23 -25 -37 -53 -44 -89 -18 -85 -13 -98 38 -102 36 -3
42 0 42 16 0 11 -9 31 -20 45 -27 34 -25 48 13 99 50 65 51 68 26 68 -12 0
-36 -16 -55 -37z"></path>
<path d="M3902 7839 c-1 -17 3 -38 9 -45 16 -19 49 -18 49 2 0 10 -6 14 -14
11 -19 -7 -38 37 -23 52 8 8 7 11 -4 11 -9 0 -16 -11 -17 -31z"></path>
<path d="M3950 7851 c0 -11 12 -32 28 -46 22 -21 27 -33 26 -71 -1 -49 -19
-79 -30 -51 -9 26 -24 20 -24 -8 0 -33 22 -41 70 -26 55 16 101 61 93 92 -14
55 -65 100 -140 123 -19 6 -23 3 -23 -13z"></path>
<path d="M6998 7760 c-58 -60 -110 -110 -117 -110 -7 0 -11 -20 -11 -55 l0
-55 80 0 80 0 0 38 c0 44 14 68 87 143 42 44 54 61 49 77 -8 24 -44 72 -55 72
-4 0 -55 -49 -113 -110z"></path>
<path d="M7385 7836 c-100 -46 -161 -122 -172 -215 -8 -67 27 -139 101 -209
62 -59 93 -70 153 -54 58 16 139 14 188 -3 51 -19 75 -19 142 1 64 19 79 11
41 -21 -48 -41 -188 -46 -288 -11 -52 18 -65 10 -50 -28 17 -45 86 -69 180
-64 141 8 208 71 218 207 4 59 0 76 -28 145 -54 128 -119 185 -281 245 -102
37 -138 38 -204 7z m35 -108 c0 -46 12 -67 38 -70 38 -4 41 -28 3 -28 -21 0
-31 -5 -31 -15 0 -10 10 -15 30 -15 23 0 30 -4 30 -20 0 -16 -7 -20 -35 -20
l-35 0 0 -60 c0 -34 -4 -60 -10 -60 -15 0 -30 45 -30 86 0 33 -2 34 -37 34
-99 0 -95 103 5 119 33 6 37 10 40 39 4 37 32 46 32 10z m358 -175 c3 -18 10
-23 33 -23 37 0 38 -21 2 -49 -36 -29 -71 -36 -107 -22 -17 7 -44 16 -60 20
-38 9 -44 28 -13 40 13 5 29 23 35 38 9 28 12 29 58 24 41 -5 50 -10 52 -28z
m-420 -41 c2 -7 -1 -12 -6 -12 -14 0 -42 29 -42 42 0 13 42 -14 48 -30z"></path>
<path d="M7310 7646 c0 -32 13 -46 41 -46 37 0 50 27 24 46 -25 18 -65 18 -65
0z"></path>
<path d="M6103 7803 c-33 -13 1 -68 35 -56 17 7 15 50 -4 57 -9 3 -16 6 -17 5
-1 0 -8 -3 -14 -6z"></path>
<path d="M3846 7785 c-9 -9 -16 -25 -16 -36 0 -19 1 -19 30 3 30 22 34 38 13
45 -6 2 -18 -3 -27 -12z"></path>
<path d="M3947 7763 c-26 -7 -15 -27 17 -31 22 -3 27 0 24 14 -3 19 -14 24
-41 17z"></path>
<path d="M3883 7736 c-28 -29 -19 -89 15 -94 27 -4 30 28 5 53 -14 14 -14 20
-4 37 18 28 9 31 -16 4z"></path>
<path d="M2436 7684 c-8 -21 -8 -145 1 -223 l6 -62 64 62 c34 35 63 70 63 77
0 10 -14 13 -52 11 l-53 -3 -3 77 c-3 73 -13 96 -26 61z"></path>
<path d="M2670 7675 c0 -14 5 -25 10 -25 6 0 10 11 10 25 0 14 -4 25 -10 25
-5 0 -10 -11 -10 -25z"></path>
<path d="M6626 7658 c-21 -30 -20 -41 7 -66 29 -27 41 -28 67 -2 26 26 25 44
-2 70 -28 26 -53 25 -72 -2z"></path>
<path d="M2720 7600 l0 -62 -29 7 c-16 3 -45 3 -65 -1 -35 -6 -36 -7 -36 -53
0 -49 21 -91 45 -91 8 0 35 19 60 43 l45 44 0 81 c0 44 -4 84 -10 87 -6 4 -10
-17 -10 -55z"></path>
<path d="M4205 7616 c-76 -28 -135 -121 -135 -214 0 -93 80 -195 165 -208 166
-24 285 162 205 321 -45 91 -145 133 -235 101z"></path>
<path d="M3784 7581 c-89 -40 -99 -166 -19 -229 20 -16 25 -29 25 -66 l0 -46
-56 0 c-47 0 -55 -3 -50 -16 3 -9 6 -18 6 -20 0 -2 18 -4 40 -4 39 0 40 0 40
-37 1 -52 21 -74 72 -80 57 -7 94 21 103 77 6 38 9 40 41 40 27 0 34 4 34 20
0 18 -7 20 -75 20 l-75 0 0 49 c0 56 12 66 85 66 31 0 40 4 43 19 3 15 -1 18
-21 14 -24 -5 -24 -4 -20 56 5 74 -17 117 -73 141 -46 19 -50 19 -100 -4z m98
-37 c27 -8 49 -65 42 -104 -7 -35 -59 -80 -92 -80 -29 0 -71 39 -81 75 -23 86
39 138 131 109z m-58 -241 c2 -16 8 -63 11 -105 6 -74 6 -78 -14 -78 -20 0
-21 5 -21 105 0 99 12 139 24 78z m110 -120 c-10 -42 -27 -76 -41 -81 -9 -3
-13 12 -13 52 0 56 0 56 30 56 28 0 30 -2 24 -27z"></path>
<path d="M4604 7557 c3 -10 6 -22 6 -27 0 -5 9 -12 20 -15 11 -3 20 -15 20
-26 0 -10 7 -19 15 -19 18 0 19 11 3 29 -10 11 -10 14 0 18 6 3 12 10 12 16 0
8 -4 7 -12 -1 -19 -19 -36 -14 -53 16 -9 15 -14 19 -11 9z"></path>
<path d="M4810 7535 c0 -8 12 -18 26 -21 26 -7 26 -7 6 -18 -12 -6 -51 -45
-88 -86 -37 -41 -78 -82 -91 -90 -13 -8 -26 -22 -29 -30 -3 -8 -21 -28 -40
-43 l-34 -29 7 32 6 32 -27 -17 c-40 -26 -51 -52 -28 -64 13 -7 22 -7 30 1 9
9 12 7 12 -10 0 -17 -5 -21 -22 -19 -19 2 -23 -3 -23 -28 0 -37 32 -49 37 -13
3 22 4 22 23 -8 11 -18 75 -88 141 -158 145 -151 153 -153 213 -72 22 29 83
96 135 149 53 52 96 100 96 106 0 6 5 11 10 11 6 0 10 -18 10 -41 0 -40 1 -41
27 -34 52 13 57 49 11 71 -38 17 -67 34 -86 52 -17 16 -22 15 -22 -2 0 -8 7
-22 16 -30 14 -15 13 -19 -17 -44 -81 -67 -74 -65 -108 -36 -20 16 -32 38 -36
62 -3 20 -8 47 -11 60 -3 18 0 22 18 22 13 0 51 9 85 19 l63 19 16 -33 c21
-45 34 -54 67 -48 30 6 35 24 12 43 -12 10 -19 10 -27 2 -9 -9 -16 -1 -29 28
-17 37 -39 54 -39 30 0 -5 -11 -10 -24 -10 -16 0 -36 17 -69 58 -25 31 -66 79
-91 106 -38 41 -44 52 -31 58 8 5 15 16 15 23 0 11 -14 15 -55 15 -42 0 -55
-4 -55 -15z m129 -145 c45 -41 81 -77 81 -81 0 -9 -48 -29 -70 -29 -11 0 -35
17 -54 37 l-34 37 -36 -32 c-42 -37 -84 -42 -110 -13 -17 19 -17 20 12 35 17
9 51 40 77 71 27 31 49 54 51 53 1 -2 39 -37 83 -78z m-226 -135 c19 -8 21
-31 8 -89 -10 -40 -58 -99 -73 -90 -4 3 -18 24 -29 47 -12 23 -26 45 -32 49
-7 4 -1 17 16 34 15 15 27 34 27 44 0 9 3 19 6 22 5 6 39 -2 77 -17z m180 -17
c13 -18 27 -48 30 -66 6 -28 2 -38 -27 -69 -37 -41 -64 -41 -109 1 -44 41 -31
121 24 152 37 21 56 17 82 -18z m-82 -202 l43 -35 38 35 c41 37 64 42 93 20
17 -12 14 -18 -51 -95 -38 -44 -72 -81 -76 -81 -4 0 -24 19 -45 43 -21 23 -56
59 -77 81 -38 37 -39 39 -21 52 29 21 48 17 96 -20z"></path>
<path d="M5520 7502 c-48 -48 -58 -99 -35 -179 l17 -58 -24 -15 c-44 -28 -88
-78 -88 -101 0 -14 21 -42 58 -78 31 -31 110 -107 175 -170 64 -62 117 -119
117 -126 0 -7 -16 -27 -35 -44 -29 -25 -45 -31 -81 -31 -25 0 -54 5 -66 11
-23 12 -31 8 -23 -13 9 -23 53 -43 96 -43 29 0 53 11 101 45 59 42 69 45 158
55 l95 10 8 110 8 110 -33 65 -33 65 -80 6 c-96 7 -144 28 -191 83 -78 90
-113 177 -93 229 17 40 56 38 67 -5 9 -37 28 -45 56 -25 31 23 25 75 -12 109
-26 22 -42 28 -78 28 -40 0 -51 -5 -84 -38z"></path>
<path d="M4560 7522 c0 -5 7 -13 16 -16 10 -4 14 -1 12 6 -5 15 -28 23 -28 10z"></path>
<path d="M4600 7490 c0 -11 4 -20 9 -20 5 0 7 9 4 20 -3 11 -7 20 -9 20 -2 0
-4 -9 -4 -20z"></path>
<path d="M5114 7485 c-10 -24 5 -83 22 -89 9 -3 61 -6 117 -6 l102 0 27 49
c15 26 25 51 21 55 -3 3 -69 6 -145 6 -114 0 -140 -3 -144 -15z"></path>
<path d="M2277 7463 c-5 -13 -24 -41 -43 -64 -39 -47 -42 -73 -13 -129 38 -72
95 -91 139 -45 18 20 22 32 17 64 -5 42 -68 182 -65 146 4 -42 -14 -136 -28
-150 -16 -16 -36 -19 -47 -9 -3 3 8 30 24 59 24 43 30 63 27 102 -2 38 -5 43
-11 26z"></path>
<path d="M4700 7473 c0 -5 6 -15 13 -22 10 -11 8 -13 -12 -8 -18 5 -21 3 -12
-6 8 -8 16 -9 29 -1 22 14 22 38 0 42 -10 2 -18 0 -18 -5z"></path>
<path d="M6512 7418 c-15 -81 -15 -107 -1 -164 9 -35 14 -42 23 -31 6 8 40 21
74 31 79 21 162 62 162 80 0 32 -104 89 -183 101 -31 5 -48 13 -54 27 -7 17
-11 8 -21 -44z"></path>
<path d="M4570 7460 c-9 -6 -10 -10 -3 -10 6 0 15 5 18 10 8 12 4 12 -15 0z"></path>
<path d="M4626 7461 c-3 -5 1 -11 9 -14 9 -4 12 -1 8 9 -6 16 -10 17 -17 5z"></path>
<path d="M7114 7443 c-8 -31 15 -54 46 -46 25 7 28 58 4 67 -30 11 -44 6 -50
-21z"></path>
<path d="M3288 7442 l-318 -2 0 -235 0 -235 258 -2 c141 0 287 -2 325 -4 l67
-2 0 238 c0 131 -3 240 -7 242 -5 2 -151 2 -325 0z m264 -232 c3 -96 5 -177 3
-180 -2 -3 -75 -4 -164 -2 l-161 3 0 174 0 174 118 4 c64 2 135 3 157 3 l40
-1 7 -175z m-362 40 l0 -130 -64 0 c-67 0 -80 -7 -70 -34 5 -12 21 -16 70 -16
57 0 64 -2 64 -20 0 -18 -7 -20 -74 -20 l-73 0 -6 88 c-3 48 -3 126 0 175 l6
87 73 0 74 0 0 -130z"></path>
<path d="M3295 7332 c-3 -3 -5 -16 -5 -29 0 -20 4 -23 20 -18 10 3 46 6 80 6
33 0 60 5 60 10 0 5 5 9 11 9 5 0 7 -4 4 -10 -3 -5 -1 -10 4 -10 6 0 11 5 11
10 0 6 7 10 15 10 8 0 15 7 15 16 0 13 -15 15 -105 13 -58 -1 -107 -5 -110 -7z"></path>
<path d="M3290 7215 c0 -28 4 -35 20 -35 16 0 20 7 20 35 0 28 -4 35 -20 35
-16 0 -20 -7 -20 -35z m30 -15 c0 -5 -5 -10 -11 -10 -5 0 -7 5 -4 10 3 6 8 10
11 10 2 0 4 -4 4 -10z"></path>
<path d="M3352 7226 c1 -14 7 -26 13 -26 5 0 3 -5 -5 -10 -12 -8 -11 -10 6
-10 17 0 21 6 20 32 -1 23 -6 34 -18 36 -14 3 -17 -3 -16 -22z"></path>
<path d="M3400 7231 c0 -11 5 -23 11 -27 8 -4 7 -9 -2 -16 -10 -6 -7 -8 11 -6
20 2 25 8 25 33 0 23 -5 31 -22 33 -17 3 -23 -2 -23 -17z"></path>
<path d="M3463 7215 c-1 -30 2 -35 20 -34 13 0 16 3 8 6 -8 3 -9 8 -3 12 5 3
12 16 16 29 6 18 4 22 -16 22 -21 0 -24 -5 -25 -35z"></path>
<path d="M3422 7143 c-69 -4 -73 -5 -70 -26 3 -20 9 -22 76 -25 l72 -3 0 31
c0 16 -1 29 -2 28 -2 -1 -36 -4 -76 -5z"></path>
<path d="M3290 7115 c0 -19 5 -25 18 -23 38 6 44 48 7 48 -20 0 -25 -5 -25
-25z"></path>
<path d="M3090 7250 c0 -49 2 -90 4 -90 2 0 11 -3 20 -6 14 -5 16 6 16 90 0
89 -1 96 -20 96 -19 0 -20 -7 -20 -90z"></path>
<path d="M6884 7347 c-41 -22 -46 -63 -11 -95 31 -30 52 -28 76 7 26 36 26 53
4 73 -27 23 -47 27 -69 15z"></path>
<path d="M7226 7313 c-4 -4 -15 -26 -25 -49 -10 -23 -34 -59 -53 -80 -19 -22
-64 -78 -101 -127 l-67 -87 52 -73 c29 -39 75 -101 101 -137 27 -36 60 -86 73
-112 13 -27 29 -48 34 -48 5 0 17 15 26 33 9 17 42 66 74 107 71 93 160 218
160 225 0 3 -46 67 -102 143 -57 76 -112 154 -123 175 -19 36 -34 45 -49 30z
m48 -177 c18 -37 18 -38 -3 -66 -11 -16 -21 -34 -21 -40 0 -22 -16 -8 -38 33
l-23 44 22 37 c12 20 27 35 33 33 6 -2 19 -20 30 -41z m122 -160 c6 -19 -40
-96 -63 -103 -13 -5 -36 59 -35 98 0 15 8 42 18 60 l16 33 29 -35 c16 -19 31
-42 35 -53z m-225 30 c19 -43 19 -46 1 -91 l-18 -47 -37 45 c-20 25 -37 50
-37 56 0 10 58 81 67 81 2 0 13 -20 24 -44z m94 -133 l28 -46 -24 -44 c-13
-23 -26 -43 -30 -43 -3 0 -11 10 -17 23 -7 12 -17 30 -24 39 -10 13 -7 26 12
67 14 28 26 50 27 51 0 0 13 -21 28 -47z"></path>
<path d="M8000 7296 c0 -13 -5 -16 -16 -12 -11 4 -15 2 -11 -8 3 -7 -1 -26 -9
-41 -18 -36 -18 -40 3 -24 9 8 14 10 11 4 -3 -5 4 -19 15 -30 11 -11 17 -15
13 -8 -3 6 -2 14 4 18 5 3 10 -1 10 -10 0 -9 5 -13 11 -10 6 4 8 13 5 20 -2 7
2 24 9 39 9 16 10 28 4 32 -6 3 -8 12 -5 20 3 8 0 11 -11 7 -8 -3 -19 0 -24 8
-7 11 -9 10 -9 -5z"></path>
<path d="M2180 7281 c0 -42 56 -100 110 -116 16 -4 8 4 -21 23 -27 17 -53 44
-63 66 -17 35 -26 45 -26 27z"></path>
<path d="M7067 7263 c-16 -15 -6 -50 17 -61 20 -9 27 -7 45 12 29 31 26 42
-10 50 -39 8 -44 8 -52 -1z"></path>
<path d="M7340 7245 c0 -40 54 -59 84 -29 27 26 4 54 -44 54 -36 0 -40 -3 -40
-25z"></path>
<path d="M8053 7223 c0 -15 19 -12 24 3 2 6 -3 11 -10 11 -8 0 -14 -6 -14 -14z"></path>
<path d="M2681 7183 c-22 -27 -21 -44 1 -25 13 10 40 15 66 13 7 -1 1 -13 -15
-31 -19 -22 -35 -30 -58 -30 -24 0 -34 -5 -38 -20 -4 -17 0 -20 34 -20 38 0
39 -1 39 -34 0 -21 6 -36 15 -40 11 -4 15 2 15 24 0 27 17 54 39 62 6 1 17 20
26 41 10 24 12 36 4 32 -8 -5 -9 -1 -5 13 9 26 -18 42 -68 42 -26 0 -40 -7
-55 -27z m109 -39 c-8 -36 -25 -62 -35 -53 -4 5 33 89 40 89 2 0 -1 -16 -5
-36z"></path>
<path d="M2073 7048 c-148 -294 -228 -502 -258 -673 -20 -114 -20 -324 0 -510
38 -357 12 -494 -169 -868 -114 -236 -220 -408 -373 -605 -41 -53 -75 -106
-78 -125 -8 -40 8 -83 43 -120 30 -32 138 -90 222 -119 76 -26 181 -90 220
-134 95 -109 74 -205 -74 -338 -64 -57 -76 -73 -76 -99 0 -52 31 -89 138 -162
56 -39 102 -74 102 -78 0 -5 -18 -29 -40 -54 -45 -52 -65 -109 -55 -162 5 -28
26 -55 96 -123 53 -51 97 -104 109 -130 26 -56 26 -139 0 -270 -25 -130 -25
-189 0 -270 58 -187 239 -311 475 -325 150 -9 228 5 719 121 417 99 631 104
790 18 111 -60 219 -203 271 -357 47 -140 60 -228 60 -415 0 -220 -34 -413
-114 -644 -12 -33 -19 -61 -16 -64 4 -5 69 10 545 123 433 103 724 161 1087
215 371 55 583 72 1006 77 213 3 387 7 387 9 0 1 -14 40 -31 86 -153 413 -260
932 -276 1341 l-6 157 -106 0 c-392 0 -947 86 -1281 197 -243 81 -544 220
-725 333 -439 277 -780 649 -1021 1115 -194 375 -255 606 -344 1321 -50 398
-82 545 -158 721 -111 258 -354 543 -606 713 -83 55 -380 220 -397 220 -2 0
-32 -55 -66 -122z"></path>
<path d="M7702 7143 c-4 -10 -7 -41 -7 -70 0 -68 24 -94 92 -100 64 -5 93 17
102 78 8 53 1 101 -17 107 -7 2 -10 -2 -6 -12 3 -9 2 -16 -3 -16 -4 0 -7 -19
-5 -42 1 -26 -3 -50 -12 -61 -20 -25 -88 -34 -104 -14 -26 31 -27 137 -2 137
5 0 10 -16 12 -36 3 -32 4 -34 22 -21 17 12 17 15 2 29 -9 9 -16 18 -16 20 0
2 21 1 46 -1 32 -2 44 0 40 8 -4 6 -35 11 -72 11 -52 0 -66 -3 -72 -17z"></path>
<path d="M6305 7119 c-4 -6 -5 -12 -2 -15 2 -3 7 2 10 11 7 17 1 20 -8 4z"></path>
<path d="M6256 7095 c15 -24 15 -25 -7 -33 -18 -7 -19 -10 -6 -15 9 -3 19 -2
22 3 10 17 24 11 40 -17 9 -16 14 -20 11 -10 -4 11 -9 30 -12 43 -3 13 -12 24
-19 24 -7 0 -15 7 -19 15 -3 8 -10 15 -16 15 -6 0 -3 -11 6 -25z"></path>
<path d="M4159 7096 c-53 -19 -95 -52 -127 -99 -48 -71 -54 -97 -60 -224 l-5
-123 296 0 296 0 -5 118 c-6 128 -15 168 -51 223 -27 41 -92 91 -142 107 -45
16 -157 14 -202 -2z"></path>
<path d="M7498 7082 c-21 -4 -24 -42 -6 -60 7 -7 25 -12 41 -12 26 0 28 3 25
31 -3 33 -27 49 -60 41z"></path>
<path d="M8007 7083 c-9 -2 -14 -9 -10 -15 4 -7 0 -9 -10 -5 -11 4 -22 -5 -36
-29 -21 -35 -21 -35 -1 -29 31 10 24 -12 -9 -30 -44 -22 -61 -43 -61 -76 0
-42 26 -89 50 -89 28 0 25 28 -2 32 -32 4 -33 52 -2 56 17 2 23 -4 28 -30 4
-18 6 -50 6 -70 -1 -27 5 -40 21 -52 12 -8 26 -13 30 -10 4 2 10 0 14 -6 4 -6
10 -6 19 2 10 9 9 15 -3 28 -9 9 -21 15 -27 13 -14 -5 -37 54 -24 62 5 3 16
-5 26 -17 11 -15 14 -17 11 -5 -8 21 6 22 24 1 10 -12 10 -17 1 -23 -9 -5 -7
-12 8 -26 11 -10 17 -23 13 -29 -4 -6 1 -5 11 3 17 14 18 63 2 90 -4 6 -1 14
8 17 8 3 18 19 21 36 7 29 7 29 22 9 8 -12 19 -19 24 -16 15 10 -3 -29 -20
-42 -9 -7 -22 -10 -29 -8 -7 3 -10 0 -7 -5 11 -17 43 -11 59 12 18 26 21 94 5
104 -8 4 -9 -1 -4 -17 7 -22 6 -23 -9 -10 -10 8 -15 23 -13 33 4 13 0 18 -14
18 -15 0 -19 7 -19 34 0 39 -8 66 -20 66 -5 0 -6 -10 -4 -22 3 -18 1 -17 -9 5
-13 27 -35 48 -47 46 -3 -1 -13 -3 -23 -6z m41 -39 c26 -18 31 -49 6 -40 -9 3
-20 6 -26 6 -6 0 -8 7 -4 15 3 8 1 15 -3 15 -5 0 -11 -7 -15 -15 -7 -19 -26
-20 -26 0 0 12 25 34 40 35 3 0 16 -7 28 -16z m-9 -65 c-18 -11 -39 -11 -39 0
0 11 31 20 44 13 4 -2 2 -8 -5 -13z m55 0 c-3 -5 -10 -7 -15 -3 -5 3 -7 10 -3
15 3 5 10 7 15 3 5 -3 7 -10 3 -15z m-31 -96 c-7 -18 -63 -17 -63 2 0 7 7 18
16 23 9 5 14 15 10 21 -4 6 -12 9 -17 6 -5 -4 -9 1 -9 10 0 11 5 15 15 11 8
-3 15 0 16 7 0 7 9 -6 19 -27 10 -22 16 -45 13 -53z m45 41 c-4 -3 -12 5 -18
18 -12 22 -12 22 6 6 10 -10 15 -20 12 -24z m-138 2 c0 -22 -2 -23 -24 -13
-27 13 -24 37 5 37 13 0 19 -7 19 -24z m137 -41 c-4 -8 -11 -15 -17 -15 -7 0
-7 6 0 21 13 23 26 19 17 -6z m-127 -5 c0 -5 -4 -10 -10 -10 -5 0 -10 5 -10
10 0 6 5 10 10 10 6 0 10 -4 10 -10z m106 -94 c1 -15 -2 -26 -7 -26 -5 0 -9 9
-9 21 0 11 -5 30 -11 42 -11 21 -10 21 6 5 10 -9 19 -28 21 -42z"></path>
<path d="M6515 7056 c-165 -76 -193 -285 -55 -410 59 -53 102 -69 190 -70 104
-1 120 9 120 80 0 49 -2 54 -17 46 -31 -16 -97 -22 -138 -12 -117 26 -151 190
-53 250 41 25 135 27 179 4 17 -8 32 -14 34 -12 1 2 5 26 9 55 l6 51 -43 21
c-62 30 -165 29 -232 -3z"></path>
<path d="M6926 7062 c-16 -49 24 -73 60 -37 33 33 27 49 -18 53 -29 2 -38 -1
-42 -16z"></path>
<path d="M5195 6984 c-84 -31 -142 -122 -133 -208 7 -55 50 -116 84 -116 13 0
24 2 24 5 0 2 -13 26 -30 52 -99 156 68 297 239 203 64 -35 61 -35 61 -12 0
36 -108 93 -174 91 -17 0 -49 -7 -71 -15z"></path>
<path d="M3772 6960 c-40 -9 -75 -39 -67 -57 3 -7 8 -20 11 -28 4 -11 0 -15
-15 -15 -19 0 -21 -4 -15 -41 l7 -41 -39 4 c-33 2 -39 0 -39 -17 0 -18 8 -20
91 -23 l92 -3 7 38 c9 47 20 62 44 56 15 -4 18 0 14 20 -3 14 0 28 6 31 17 11
13 44 -9 66 -21 21 -35 23 -88 10z m58 -55 c0 -8 -9 -24 -19 -34 -11 -11 -23
-36 -27 -55 -5 -31 -10 -36 -35 -36 -16 0 -29 2 -29 4 0 14 46 122 55 128 18
14 55 9 55 -7z"></path>
<path d="M5498 6941 c28 -48 141 -181 152 -181 24 0 3 32 -82 120 -52 55 -82
81 -70 61z"></path>
<path d="M2898 6928 c-31 -23 -33 -71 -6 -103 21 -23 29 -26 57 -20 23 5 37
16 48 41 16 32 16 36 -4 62 -23 31 -68 40 -95 20z"></path>
<path d="M6122 6928 c-30 -15 -38 -52 -18 -83 26 -39 71 -33 95 13 14 26 2 55
-29 72 -22 12 -19 12 -48 -2z"></path>
<path d="M6936 6891 c-32 -35 3 -82 48 -65 19 7 22 54 4 72 -17 17 -32 15 -52
-7z"></path>
<path d="M7496 6891 c-21 -23 -18 -49 7 -65 39 -25 79 44 41 71 -23 17 -28 17
-48 -6z"></path>
<path d="M5230 6893 c-8 -3 -27 -17 -42 -31 -46 -43 -32 -127 27 -166 26 -17
27 -17 52 8 l26 26 -32 0 c-26 0 -34 6 -48 35 -16 34 -16 36 4 63 29 39 74 42
102 6 26 -33 26 -54 1 -99 -18 -32 -27 -75 -15 -75 2 0 15 5 28 11 55 25 76
122 36 173 -36 46 -93 66 -139 49z"></path>
<path d="M3147 6883 c-13 -12 -7 -33 8 -33 8 0 15 9 15 20 0 20 -11 26 -23 13z"></path>
<path d="M6617 6869 c-15 -11 -27 -30 -27 -43 0 -49 70 -75 103 -38 51 56 -18
128 -76 81z"></path>
<path d="M3403 6854 c-37 -18 -53 -69 -35 -108 15 -33 74 -59 105 -47 58 22
76 103 32 146 -28 29 -57 31 -102 9z m17 -8 c0 -2 -8 -10 -17 -17 -16 -13 -17
-12 -4 4 13 16 21 21 21 13z m75 -62 c4 -35 -2 -47 -32 -63 -19 -9 -25 -8 -43
11 -29 31 -26 72 7 98 26 20 27 20 45 2 11 -10 21 -32 23 -48z"></path>
<path d="M3448 6783 c-22 -5 -24 -33 -3 -33 8 0 15 5 15 11 0 5 5 7 10 4 6 -3
10 1 10 9 0 16 -2 17 -32 9z"></path>
<path d="M4807 6823 c-4 -3 -7 -17 -7 -30 0 -24 14 -31 26 -12 6 11 44 8 77
-6 13 -5 17 -2 17 12 0 10 -5 24 -12 31 -13 13 -90 17 -101 5z"></path>
<path d="M5257 6819 c-21 -12 -23 -55 -3 -62 16 -6 56 24 56 41 0 18 -34 31
-53 21z"></path>
<path d="M3081 6733 c-30 -34 -32 -40 -23 -70 8 -27 8 -33 -5 -33 -10 0 -6 -7
12 -21 22 -18 29 -20 36 -8 8 11 9 9 7 -6 -2 -16 3 -21 29 -23 23 -2 40 5 68
29 34 30 36 35 30 73 -8 50 -52 96 -93 96 -20 0 -38 -11 -61 -37z m79 2 c10
-12 9 -16 -4 -21 -25 -10 -19 -24 10 -24 23 0 25 -3 19 -27 -3 -14 -12 -34
-19 -44 -11 -17 -14 -17 -34 -3 -23 16 -31 67 -12 79 6 3 10 17 10 31 0 27 12
31 30 9z"></path>
<path d="M7064 6706 c-12 -32 1 -51 37 -54 41 -3 56 16 39 49 -13 23 -68 26
-76 5z"></path>
<path d="M7352 6700 c-17 -27 -15 -38 8 -50 40 -21 78 9 65 51 -9 26 -56 25
-73 -1z"></path>
<path d="M7642 6699 c-71 -36 -142 -134 -142 -198 0 -7 23 -11 65 -11 60 0 65
2 65 21 0 12 5 38 11 59 l11 37 75 7 c80 6 93 4 93 -20 0 -10 -6 -13 -19 -9
-28 9 -51 -5 -51 -30 0 -43 10 -55 46 -55 l34 0 1 53 1 52 11 -55 12 -55 58
-3 59 -3 -7 43 c-10 58 -27 89 -70 127 -73 64 -172 80 -253 40z"></path>
<path d="M6086 6675 c-53 -19 -85 -44 -121 -94 -61 -87 -30 -228 65 -297 55
-40 86 -48 155 -39 104 13 193 99 203 194 16 169 -143 293 -302 236z m156 -76
c26 -12 65 -59 48 -59 -5 0 -10 4 -10 8 0 5 -18 18 -40 31 -53 30 -52 45 2 20z
m-23 -108 c27 -37 27 -81 0 -115 -16 -21 -29 -26 -64 -26 -35 0 -48 5 -64 26
-12 15 -21 41 -21 59 0 18 9 44 21 59 16 21 29 26 64 26 37 0 47 -5 64 -29z
m72 -128 c-8 -15 -10 -15 -11 -2 0 17 10 32 18 25 2 -3 -1 -13 -7 -23z"></path>
<path d="M6122 6468 c-18 -18 -15 -66 5 -76 22 -13 71 5 78 28 10 30 -12 60
-43 60 -16 0 -33 -5 -40 -12z"></path>
<path d="M3839 6652 c-2 -23 -2 -24 -6 -4 -5 27 -29 29 -43 2 -7 -14 -7 -20 0
-20 5 0 10 -10 10 -22 0 -17 3 -19 12 -10 15 15 32 16 23 2 -11 -17 11 -11 28
8 22 24 21 34 -3 55 -19 16 -20 16 -21 -11z m-22 -24 c-3 -8 -6 -5 -6 6 -1 11
2 17 5 13 3 -3 4 -12 1 -19z"></path>
<path d="M3513 6658 c-6 -7 -16 -43 -23 -80 -12 -62 -15 -67 -39 -66 -14 0
-53 -14 -87 -31 -60 -32 -62 -32 -99 -17 -42 18 -91 21 -100 6 -8 -14 13 -50
30 -50 8 0 18 8 23 17 9 15 14 15 51 3 34 -11 39 -16 30 -31 -7 -14 -5 -21 11
-31 11 -7 20 -20 20 -28 1 -11 4 -10 16 5 8 11 13 28 10 38 -5 18 10 22 33 8
10 -7 14 -24 12 -55 -2 -38 20 -116 32 -116 3 0 2 20 0 44 -6 54 4 119 18 111
15 -10 37 -69 45 -120 9 -62 22 -46 40 46 14 74 25 96 42 85 6 -3 6 -22 -1
-49 -11 -51 -3 -110 18 -127 12 -10 13 1 9 77 l-5 88 20 -23 c11 -13 23 -43
27 -67 3 -25 10 -45 15 -45 12 0 11 32 -2 86 -10 40 -10 46 7 59 27 20 34 18
34 -8 0 -13 7 -32 16 -43 14 -18 15 -16 10 29 -5 42 -4 48 12 45 21 -4 28 -43
12 -66 -7 -9 -1 -4 14 11 31 34 33 47 6 54 -27 7 -20 27 10 31 14 2 27 -3 32
-13 8 -13 13 -14 24 -4 22 18 17 38 -12 45 -19 5 -49 -5 -117 -40 l-92 -47
-22 26 c-13 14 -23 33 -23 41 0 32 -23 6 -44 -49 -24 -65 -36 -65 -36 -1 0 59
8 74 39 74 32 0 52 17 44 36 -3 8 0 14 6 14 8 0 10 12 5 38 -15 85 -45 123
-71 90z m45 -88 l4 -60 -32 0 c-27 0 -31 3 -25 18 4 9 9 35 12 57 7 60 12 70
25 57 7 -7 14 -39 16 -72z m-91 -117 c-4 -20 -11 -41 -16 -46 -13 -13 -111 13
-111 30 0 16 75 52 109 53 22 0 23 -3 18 -37z m-127 -59 c0 -8 -4 -12 -10 -9
-5 3 -10 13 -10 21 0 8 5 12 10 9 6 -3 10 -13 10 -21z"></path>
<path d="M4772 6655 c-23 -7 -54 -20 -67 -29 -25 -16 -25 -17 -19 -139 4 -72
12 -135 21 -154 19 -41 59 -56 133 -51 49 3 66 10 87 31 25 24 27 34 35 154 4
70 6 135 3 144 -7 20 -88 59 -123 58 -15 0 -46 -6 -70 -14z"></path>
<path d="M6851 6644 c-31 -40 -27 -80 13 -120 38 -38 54 -41 97 -19 38 20 53
58 39 99 -17 49 -39 66 -86 66 -34 0 -47 -5 -63 -26z m89 -43 c19 -36 -17 -74
-46 -50 -15 12 -19 51 -7 62 13 14 43 7 53 -12z"></path>
<path d="M8075 6613 c-4 -20 -18 -58 -31 -85 -31 -60 -30 -68 5 -102 44 -43
103 -42 142 2 17 19 29 44 29 60 0 31 -43 104 -82 140 l-24 22 7 -52 c4 -29 5
-77 2 -106 -6 -52 -7 -53 -32 -47 -40 10 -46 21 -26 51 10 16 20 55 23 91 5
69 -2 84 -13 26z"></path>
<path d="M5776 6595 c4 -8 10 -12 15 -9 11 6 2 24 -11 24 -5 0 -7 -7 -4 -15z"></path>
<path d="M4092 6580 c-108 -16 -132 -53 -139 -221 -6 -110 -7 -118 -27 -121
-15 -2 -22 -11 -24 -30 l-3 -28 75 0 76 0 0 30 c0 25 -4 30 -25 30 l-25 0 7
118 c4 75 11 125 21 139 38 59 219 55 251 -5 6 -12 11 -78 11 -154 0 -73 5
-149 10 -169 12 -43 50 -72 87 -67 32 4 42 25 16 34 -10 4 -28 16 -40 27 -22
19 -23 28 -23 166 0 123 -3 152 -18 181 -32 59 -118 85 -230 70z"></path>
<path d="M5730 6575 c0 -8 9 -15 19 -15 20 0 37 -32 27 -49 -3 -5 3 -7 14 -4
15 4 18 11 14 28 -8 34 16 43 39 14 15 -17 18 -19 14 -6 -4 10 -7 23 -7 28 0
15 -36 10 -50 -6 -12 -14 -15 -13 -35 5 -25 24 -35 25 -35 5z"></path>
<path d="M7657 6543 c-4 -20 -5 -39 -2 -42 2 -4 22 -5 44 -3 40 4 41 5 41 43
0 39 0 39 -39 39 -36 0 -39 -2 -44 -37z"></path>
<path d="M4499 6544 c-17 -21 0 -49 32 -49 27 0 37 28 19 50 -16 19 -34 19
-51 -1z"></path>
<path d="M5522 6534 c6 -55 73 -58 73 -3 0 21 -5 24 -38 27 -37 3 -38 2 -35
-24z"></path>
<path d="M3590 6518 c0 -7 10 -18 23 -24 12 -6 37 -19 55 -29 54 -28 48 -10
-10 29 -57 39 -68 43 -68 24z"></path>
<path d="M7563 6472 c-41 -2 -63 -7 -63 -15 0 -62 64 -153 131 -187 57 -29
166 -28 205 3 16 12 30 20 32 19 7 -7 61 48 76 77 9 16 18 47 22 70 l7 41 -61
0 -60 0 -7 -75 c-4 -41 -11 -78 -16 -81 -6 -3 -7 5 -3 21 l7 27 -49 -7 c-27
-3 -58 -8 -69 -10 -27 -5 -75 38 -76 68 -1 46 -10 52 -76 49z"></path>
<path d="M7660 6435 c0 -41 2 -45 24 -45 44 0 56 10 56 49 0 35 -1 36 -40 38
l-40 3 0 -45z"></path>
<path d="M7760 6429 c0 -39 1 -40 33 -37 29 3 32 6 35 41 3 36 3 37 -32 37
-35 0 -36 -1 -36 -41z"></path>
<path d="M5307 6450 c-177 -45 -301 -224 -283 -409 16 -180 162 -323 343 -337
56 -5 82 -1 152 21 72 23 92 35 136 78 164 165 157 404 -16 561 -35 32 -81 62
-108 71 -57 20 -173 28 -224 15z m224 -72 c116 -54 190 -170 190 -296 0 -86
-13 -137 -48 -189 -65 -95 -150 -138 -273 -138 -93 0 -152 20 -213 71 -133
112 -153 318 -45 459 91 119 252 157 389 93z"></path>
<path d="M5332 6361 c-42 -8 -43 -21 -2 -43 39 -20 45 -18 58 22 12 33 10 34
-56 21z"></path>
<path d="M5411 6306 c-12 -31 -21 -72 -21 -91 0 -29 4 -35 35 -45 48 -16 67
-7 121 56 45 52 46 55 29 73 -20 23 -72 49 -113 57 -29 6 -31 4 -51 -50z"></path>
<path d="M5217 6302 c-10 -10 -17 -21 -17 -24 0 -3 29 -31 65 -62 56 -49 67
-56 85 -46 36 19 26 65 -22 110 -48 44 -85 51 -111 22z"></path>
<path d="M5142 6198 c-12 -29 -22 -69 -24 -88 l-3 -35 70 4 c68 3 105 19 105
45 0 12 -111 126 -122 126 -3 0 -15 -24 -26 -52z"></path>
<path d="M5600 6242 c0 -4 -23 -34 -51 -65 -64 -72 -41 -75 29 -4 53 53 64 77
37 77 -8 0 -15 -4 -15 -8z"></path>
<path d="M5605 6147 c-50 -64 -51 -67 -27 -60 11 2 23 0 26 -6 5 -7 -4 -11
-24 -11 -41 0 -70 -16 -70 -39 0 -24 98 -113 119 -109 24 5 50 86 50 160 1 61
-13 119 -28 117 -3 0 -24 -23 -46 -52z"></path>
<path d="M5345 6115 c-73 -72 24 -169 100 -99 22 21 26 31 21 56 -14 68 -75
90 -121 43z m79 -21 c24 -24 17 -57 -15 -75 -48 -25 -82 44 -37 75 28 20 33
20 52 0z"></path>
<path d="M5183 6043 c-46 -3 -63 -8 -63 -18 0 -21 40 -125 48 -125 4 0 31 23
60 51 37 36 52 57 50 72 -3 24 -7 25 -95 20z"></path>
<path d="M5441 5961 l-24 -18 32 -67 c35 -75 41 -77 114 -29 33 21 37 26 25
40 -17 21 -108 93 -116 93 -4 0 -18 -9 -31 -19z"></path>
<path d="M5257 5920 c-44 -43 -49 -51 -37 -65 25 -30 94 -58 158 -63 l63 -5
-21 53 c-34 87 -48 107 -81 119 -29 10 -33 8 -82 -39z"></path>
<path d="M4120 6418 c-15 -16 -19 -29 -14 -43 4 -11 9 -59 11 -107 l4 -88 30
0 29 0 0 85 c0 50 5 93 12 105 10 16 9 23 -12 45 -29 31 -34 31 -60 3z"></path>
<path d="M3260 6408 c0 -25 21 -66 37 -72 11 -5 11 -2 1 17 -6 12 -17 33 -25
47 -9 18 -13 20 -13 8z"></path>
<path d="M7250 6375 l0 -35 -75 0 c-73 0 -75 -1 -75 -25 0 -24 2 -25 75 -25
l75 0 0 -33 c0 -32 -2 -34 -40 -35 -96 -4 -160 -67 -168 -166 -6 -72 12 -119
60 -160 l40 -35 -33 -21 c-64 -38 -103 -45 -146 -24 -102 50 -228 -5 -250
-108 l-5 -28 -119 0 c-131 0 -133 -1 -98 -59 16 -27 23 -31 30 -20 6 11 39 15
134 18 l125 3 0 47 c1 81 38 106 144 96 51 -4 88 -2 131 10 109 28 125 35 131
61 5 18 13 24 35 24 28 0 29 -2 29 -46 0 -44 1 -45 28 -42 24 3 27 7 30 46 3
40 4 42 36 42 29 0 34 -4 39 -29 4 -17 14 -30 26 -34 18 -4 21 0 21 26 0 25 7
36 29 48 111 63 121 223 19 315 -40 36 -42 36 -104 31 l-64 -5 0 45 0 46 71
-5 c86 -7 109 -2 109 23 0 22 -40 31 -120 27 l-55 -3 -3 33 c-3 28 -7 32 -33
32 -27 0 -29 -3 -29 -35z m0 -335 l0 -140 -37 0 c-109 0 -170 137 -101 225 24
31 71 54 111 55 l27 0 0 -140z m175 126 c91 -38 102 -180 19 -245 -20 -15 -41
-21 -80 -21 l-54 0 0 125 0 126 33 14 c40 18 41 18 82 1z"></path>
<path d="M4493 6370 c-34 -14 -47 -46 -33 -81 9 -21 9 -36 1 -60 -15 -44 -14
-75 4 -109 13 -25 22 -30 51 -30 46 0 70 14 90 51 13 27 14 43 5 112 -12 87
-27 112 -71 121 -14 3 -35 1 -47 -4z m57 -59 c17 -33 12 -51 -14 -51 -30 0
-40 14 -32 46 8 29 31 31 46 5z m10 -110 c14 -27 -4 -71 -29 -71 -10 0 -22 7
-25 16 -8 21 -8 59 1 67 13 14 43 7 53 -12z"></path>
<path d="M6585 6287 l7 -94 -208 -6 c-115 -3 -221 -9 -235 -12 l-26 -7 23 -62
c12 -34 25 -83 29 -109 6 -37 11 -47 24 -45 12 2 17 18 21 64 l5 61 70 2 c90
3 103 -9 107 -99 l3 -65 195 -3 c220 -3 252 3 310 63 41 42 44 84 10 120 -13
14 -28 25 -34 25 -6 -1 -23 -19 -38 -40 -27 -38 -30 -40 -82 -40 -76 0 -106
25 -106 89 0 73 40 120 102 121 28 0 46 -8 73 -31 19 -17 35 -38 35 -46 0 -12
10 -13 58 -7 31 3 59 8 61 10 11 10 -14 79 -42 115 -53 69 -91 83 -241 88
l-128 3 7 -95z"></path>
<path d="M5823 6348 c-40 -19 -22 -98 23 -98 17 0 54 36 54 53 0 19 -29 57
-43 56 -7 0 -22 -5 -34 -11z"></path>
<path d="M8097 6312 c-21 -23 -22 -51 -1 -80 31 -45 104 -17 104 41 0 49 -70
75 -103 39z"></path>
<path d="M3415 6211 c-46 -9 -99 -54 -91 -77 9 -29 54 -73 82 -80 20 -5 33 0
60 27 26 26 37 30 46 21 7 -7 16 -12 20 -12 9 0 0 50 -12 63 -8 10 -51 -11
-63 -30 -16 -26 -47 -35 -77 -23 -35 15 -44 35 -24 55 21 20 34 19 34 -4 0
-10 7 -24 16 -31 13 -12 15 -8 13 28 -2 23 0 44 3 48 4 3 21 -1 39 -10 39 -20
39 -19 39 -1 0 14 -31 36 -47 34 -4 -1 -22 -4 -38 -8z m75 -96 c-7 -9 -15 -13
-18 -10 -3 2 1 11 8 20 7 9 15 13 18 10 3 -2 -1 -11 -8 -20z"></path>
<path d="M3634 6210 c-25 -10 -54 -52 -54 -79 0 -10 16 -33 36 -51 40 -35 65
-35 116 1 59 42 57 79 -6 118 -35 22 -58 25 -92 11z m84 -30 c43 -26 39 -47
-16 -77 -41 -23 -45 -23 -68 -8 -13 8 -24 22 -24 29 0 26 12 46 27 46 8 0 12
4 8 9 -4 8 4 13 35 20 3 0 20 -8 38 -19z"></path>
<path d="M3660 6153 c0 -26 16 -47 29 -39 16 11 13 43 -5 50 -23 9 -24 8 -24
-11z"></path>
<path d="M7680 6148 c-59 -63 19 -159 80 -98 39 39 12 120 -40 120 -10 0 -28
-10 -40 -22z m60 -38 c0 -23 -26 -44 -45 -36 -20 7 -19 40 1 61 19 18 44 4 44
-25z"></path>
<path d="M7993 6153 l-172 -3 4 -28 c2 -15 9 -97 15 -182 6 -85 13 -174 16
-197 l6 -43 115 0 114 0 -3 179 -3 179 38 4 c45 4 48 2 65 -36 17 -37 27 -27
57 57 l24 65 -22 6 c-12 3 -35 5 -52 4 -16 -2 -107 -4 -202 -5z"></path>
<path d="M5937 6136 c-29 -22 -19 -78 15 -90 53 -18 91 50 50 87 -22 20 -41
21 -65 3z"></path>
<path d="M4765 6107 c-22 -17 -71 -58 -110 -91 -38 -33 -78 -67 -89 -75 -10
-9 -37 -16 -60 -16 -40 0 -41 -1 -44 -37 -2 -25 1 -38 9 -38 7 0 68 33 136 72
97 57 123 77 119 90 -5 21 5 23 22 6 19 -19 106 40 110 75 3 21 -1 27 -15 27
-11 0 -23 4 -28 9 -6 6 -25 -2 -50 -22z"></path>
<path d="M4284 6023 c-15 -21 -29 -40 -30 -42 -2 -2 -27 8 -55 23 -40 19 -68
26 -114 26 -121 0 -208 -52 -260 -156 -69 -137 -17 -306 117 -380 46 -25 63
-29 133 -29 169 0 272 93 292 263 6 53 -20 140 -57 192 l-22 30 31 42 c17 23
31 48 31 55 0 26 -38 12 -66 -24z m-149 -48 c57 -15 85 -30 85 -44 0 -18 -74
-91 -91 -91 -51 0 -212 66 -206 85 6 16 67 48 106 56 20 4 38 7 41 8 3 0 32
-6 65 -14z m162 -136 c36 -88 26 -169 -31 -244 -30 -39 -92 -75 -131 -75 l-25
0 0 139 0 138 40 7 c32 5 46 15 72 51 18 24 38 43 43 41 6 -1 20 -27 32 -57z
m-343 6 c31 -14 63 -25 71 -25 8 0 19 -9 25 -19 12 -23 14 -278 2 -285 -18
-11 -80 15 -120 50 -48 41 -78 94 -88 152 -7 48 20 152 40 152 7 0 39 -11 70
-25z"></path>
<path d="M3505 6040 c-15 -7 -10 -9 23 -9 23 -1 42 4 42 9 0 12 -37 12 -65 0z"></path>
<path d="M4835 6014 c-11 -8 -98 -62 -192 -120 l-173 -106 0 -38 c0 -20 3 -51
6 -68 l6 -31 52 26 c91 46 207 115 202 121 -3 2 -32 -1 -65 -8 -32 -7 -65 -10
-73 -7 -19 7 116 67 152 67 17 0 49 10 70 23 l40 22 0 68 c0 37 -1 67 -2 67
-2 0 -12 -7 -23 -16z"></path>
<path d="M5906 5936 c-138 -51 -185 -231 -87 -339 113 -125 303 -93 369 63 21
52 12 139 -21 189 -53 81 -171 120 -261 87z m-16 -91 c0 -8 -4 -15 -10 -15 -5
0 -10 7 -10 15 0 8 5 15 10 15 6 0 10 -7 10 -15z m104 -1 c23 -9 20 -51 -5
-64 -37 -20 -67 28 -37 58 14 14 20 14 42 6z m-124 -72 c0 -4 -9 -13 -20 -20
-18 -11 -20 -10 -20 8 0 13 7 20 20 20 11 0 20 -3 20 -8z m141 -88 c17 -21 0
-48 -33 -52 -28 -3 -42 18 -33 49 8 23 48 25 66 3z m-121 -55 c7 -11 9 -24 5
-27 -7 -7 -35 25 -35 40 0 16 19 8 30 -13z"></path>
<path d="M3416 5914 c-27 -26 -12 -58 25 -52 19 2 25 10 27 36 3 26 0 32 -17
32 -11 0 -27 -7 -35 -16z"></path>
<path d="M3500 5910 c-6 -12 -10 -31 -8 -43 2 -18 9 -22 37 -20 44 2 56 14 44
50 -12 36 -56 45 -73 13z"></path>
<path d="M3598 5906 c-7 -36 5 -50 36 -42 35 9 35 43 0 56 -33 13 -31 14 -36
-14z"></path>
<path d="M7650 5850 c-42 -42 -13 -110 46 -110 24 0 64 43 64 67 0 21 -46 63
-70 63 -11 0 -29 -9 -40 -20z"></path>
<path d="M6332 5834 c-37 -26 -20 -94 24 -94 20 0 54 37 54 59 0 17 -33 51
-50 51 -3 0 -16 -7 -28 -16z"></path>
<path d="M3432 5808 c-7 -7 -12 -23 -12 -36 0 -21 3 -23 33 -17 41 9 41 9 33
40 -7 27 -33 34 -54 13z"></path>
<path d="M3569 5802 c-13 -10 -32 -22 -42 -25 -25 -9 -30 -29 -17 -76 7 -26
17 -41 26 -41 13 0 15 10 12 53 l-3 52 35 0 c19 1 43 -3 53 -7 21 -11 23 18 3
45 -17 22 -37 22 -67 -1z"></path>
<path d="M4725 5734 c-167 -96 -191 -109 -220 -125 -24 -13 -31 -24 -33 -53
l-3 -36 405 0 406 0 0 30 0 30 -205 0 c-182 0 -205 2 -205 16 0 14 -8 15 -47
10 -35 -4 -42 -3 -25 4 20 9 22 16 22 90 0 44 -3 80 -8 80 -4 0 -43 -21 -87
-46z"></path>
<path d="M7234 5734 c-91 -44 -81 -166 15 -195 51 -15 103 8 126 57 21 45 12
85 -27 124 -33 34 -66 38 -114 14z m88 -69 c23 -51 -27 -99 -71 -68 -23 16
-28 62 -9 81 22 22 67 14 80 -13z"></path>
<path d="M3584 5696 c-19 -49 36 -78 58 -31 10 22 9 28 -3 36 -21 13 -49 11
-55 -5z"></path>
<path d="M7018 5666 c8 -92 -40 -158 -123 -171 -35 -6 -41 -4 -50 17 -7 16
-20 24 -42 26 -28 3 -33 -1 -39 -22 -6 -25 -9 -26 -80 -26 l-74 0 0 40 c0 45
-11 53 -57 48 l-29 -3 24 -77 c23 -73 25 -77 50 -73 15 2 57 7 93 10 l66 5 6
-29 c5 -23 12 -30 36 -33 28 -4 31 -2 37 29 6 31 8 33 51 33 111 0 193 91 193
215 l0 55 -33 0 c-32 0 -32 0 -29 -44z"></path>
<path d="M3420 5682 c0 -37 52 -58 64 -26 13 34 7 44 -29 44 -27 0 -35 -4 -35
-18z"></path>
<path d="M6848 5676 c-23 -17 -23 -58 0 -79 23 -21 66 -22 86 -1 19 18 21 65
4 82 -16 16 -69 15 -90 -2z"></path>
<path d="M7528 5653 c-10 -2 -20 -18 -24 -39 -4 -24 -12 -34 -24 -34 -31 0
-40 -52 -14 -81 9 -10 23 -33 32 -51 14 -27 22 -32 45 -30 24 2 28 0 23 -15
-3 -10 -13 -49 -22 -86 -15 -61 -22 -73 -58 -98 -22 -17 -48 -42 -58 -57 -20
-30 -23 -83 -7 -114 15 -28 70 -49 104 -39 43 11 41 28 -5 42 -55 17 -68 44
-45 93 24 49 45 60 84 40 17 -8 39 -13 50 -9 13 4 23 -2 35 -20 46 -69 223
-72 310 -4 32 25 33 43 2 102 l-23 47 33 25 c19 14 34 31 34 38 0 7 -16 32
-35 56 -19 24 -35 47 -35 50 0 5 68 49 93 60 16 7 67 -22 67 -38 0 -9 -9 -29
-19 -44 -13 -20 -17 -40 -14 -70 4 -32 -3 -58 -27 -112 l-31 -70 33 32 c18 18
41 47 50 65 76 151 80 168 46 192 -22 16 -22 17 -5 46 14 24 16 34 6 51 -10
19 -17 21 -60 15 -77 -10 -99 -22 -99 -51 l0 -25 -114 2 c-111 3 -115 4 -121
26 -7 29 -40 26 -40 -3 0 -13 8 -21 22 -23 13 -2 36 -17 52 -33 21 -20 39 -29
63 -29 62 0 108 -54 88 -104 -7 -20 -88 -76 -109 -76 -4 0 -5 17 -3 38 2 21
-1 57 -8 80 -11 41 -12 42 -55 42 -49 0 -85 -27 -85 -65 0 -22 44 -68 93 -98
15 -10 27 -21 27 -25 0 -4 -37 -20 -82 -35 -78 -25 -84 -26 -96 -9 -9 12 -12
34 -8 72 10 104 21 140 49 170 16 16 26 34 22 40 -11 18 -53 11 -60 -9 -10
-32 -31 -31 -70 3 -43 36 -42 51 4 104 34 38 56 40 83 7 25 -32 38 -32 38 1 0
49 -16 64 -68 63 -26 -1 -55 -3 -64 -6z m382 -429 c15 -39 13 -44 -26 -60 -24
-10 -62 -14 -122 -12 l-87 3 43 19 c23 10 49 27 56 38 8 11 17 15 20 9 7 -11
63 2 80 19 16 16 26 12 36 -16z"></path>
<path d="M5555 5640 c-34 -11 -65 -55 -65 -95 0 -39 59 -95 100 -95 23 0 42 9
66 34 43 43 45 83 7 125 -32 34 -65 44 -108 31z"></path>
<path d="M6319 5569 c-15 -6 -32 -23 -39 -39 -12 -28 -16 -30 -66 -30 -41 0
-54 -4 -54 -15 0 -12 13 -15 55 -15 l55 0 0 -80 c0 -73 2 -80 20 -80 18 0 20
7 20 60 l0 60 66 0 c57 0 65 2 62 18 -2 13 -16 18 -63 22 -52 4 -60 8 -60 25
0 17 8 20 48 23 51 3 69 21 47 47 -14 17 -52 18 -91 4z"></path>
<path d="M5366 5475 c-8 -8 -21 -12 -29 -9 -12 4 -15 -1 -13 -21 2 -14 6 -28
10 -32 3 -3 -2 -12 -12 -19 -16 -11 -15 -13 11 -23 15 -6 30 -18 33 -26 4 -8
12 -15 20 -15 19 0 54 31 48 42 -3 5 -2 8 3 7 19 -3 33 2 33 12 0 6 -7 9 -15
5 -20 -7 -19 11 1 22 22 12 8 35 -18 29 -15 -4 -17 -2 -8 7 7 10 6 17 -4 25
-11 10 -15 8 -19 -6 -4 -17 -5 -17 -6 0 -1 21 -15 22 -35 2z m39 -35 c4 -6 15
-8 25 -5 17 5 17 3 7 -19 -16 -35 -37 -41 -37 -12 0 30 -10 39 -27 24 -11 -8
-12 -7 -7 6 7 18 29 21 39 6z"></path>
<path d="M3452 5464 c-41 -28 -21 -102 29 -105 10 -1 24 -3 29 -4 6 -1 67 -3
136 -4 124 -1 125 -1 122 -23 -3 -22 -6 -23 -142 -26 -143 -3 -166 -9 -166
-43 0 -21 1 -22 120 -111 77 -58 90 -63 145 -68 51 -4 60 -8 63 -25 5 -42 -10
-46 -77 -19 -84 34 -162 42 -196 20 -29 -19 -32 -44 -9 -92 26 -54 73 -66 241
-62 132 3 142 4 180 30 30 20 51 46 77 99 48 96 47 122 -9 198 -67 90 -195
222 -232 237 -48 21 -281 19 -311 -2z"></path>
<path d="M4957 5442 c9 -5 13 -64 15 -205 l3 -197 -107 0 -108 0 0 -30 0 -30
104 0 104 0 7 -40 c4 -21 4 -49 0 -61 -4 -11 -4 -45 0 -75 5 -45 10 -54 26
-54 24 0 41 40 39 95 -1 22 -1 61 -1 88 l1 47 115 0 115 0 0 30 0 30 -115 0
-115 0 -2 163 c-1 89 -3 181 -3 205 l0 42 -45 0 c-25 0 -40 -4 -33 -8z"></path>
<path d="M7045 5424 c-24 -25 -15 -67 17 -78 34 -12 58 6 58 45 0 43 -45 63
-75 33z"></path>
<path d="M7350 5433 c-37 -14 -40 -56 -6 -78 33 -22 66 -5 66 33 0 43 -22 59
-60 45z"></path>
<path d="M5097 5419 c7 -7 15 -10 18 -7 3 3 -2 9 -12 12 -14 6 -15 5 -6 -5z"></path>
<path d="M6164 5383 c-17 -17 -15 -32 8 -46 23 -15 48 -1 48 27 0 29 -34 41
-56 19z"></path>
<path d="M5620 5371 c-55 -17 -110 -52 -148 -96 -65 -73 -77 -107 -77 -210 0
-81 3 -95 30 -144 58 -105 172 -171 296 -171 176 0 322 192 285 377 -9 48 -15
59 -33 61 -21 3 -21 1 -16 -71 3 -41 3 -95 -1 -119 -6 -43 -52 -128 -68 -128
-4 0 -19 22 -33 49 -27 54 -42 68 -56 54 -5 -5 2 -31 16 -62 14 -29 25 -60 25
-68 0 -22 -63 -43 -132 -43 -81 0 -150 32 -204 93 -121 138 -66 362 104 423
97 35 236 5 271 -58 34 -62 35 -63 70 -48 35 14 121 104 121 126 0 17 -36 18
-47 1 -12 -18 -82 -77 -93 -77 -5 0 -12 10 -16 23 -10 33 -40 57 -95 78 -51
20 -151 24 -199 10z"></path>
<path d="M4315 5356 c-74 -32 -138 -115 -151 -193 l-7 -43 117 0 116 0 0 125
c0 123 0 125 -22 125 -13 -1 -36 -7 -53 -14z"></path>
<path d="M4419 5273 c0 -54 -2 -106 -4 -115 -2 -10 0 -20 4 -23 9 -5 161 123
161 135 0 13 -79 80 -106 90 -52 20 -54 17 -55 -87z m97 6 c8 -14 -14 -29 -43
-29 -27 0 -31 26 -5 33 30 8 41 7 48 -4z"></path>
<path d="M5928 5343 c7 -3 16 -2 19 1 4 3 -2 6 -13 5 -11 0 -14 -3 -6 -6z"></path>
<path d="M6685 5294 c-67 -33 -118 -92 -139 -161 -7 -22 -6 -23 68 -23 42 0
76 2 76 5 0 20 34 163 42 178 15 28 7 28 -47 1z"></path>
<path d="M6767 5296 c-19 -28 -50 -149 -45 -175 3 -13 15 -15 73 -13 38 2 71
5 72 6 7 6 -50 167 -65 186 l-18 22 -17 -26z"></path>
<path d="M6840 5305 c0 -2 11 -38 25 -79 14 -41 25 -84 25 -95 0 -19 6 -21 65
-21 73 0 77 6 49 63 -30 59 -63 94 -108 116 -47 22 -56 24 -56 16z"></path>
<path d="M7213 5294 c-22 -11 -37 -29 -48 -59 -21 -54 -9 -106 42 -171 23 -31
33 -52 27 -59 -37 -50 -47 -71 -51 -108 -6 -49 12 -94 55 -139 35 -38 79 -45
135 -20 119 53 104 232 -21 273 -37 12 -71 46 -109 108 -56 90 9 188 77 116
27 -28 40 -32 40 -10 0 25 -53 75 -85 80 -18 3 -43 -1 -62 -11z m139 -381 c20
-18 24 -73 6 -91 -17 -17 -64 -15 -82 4 -24 23 -20 70 6 88 29 20 47 20 70 -1z"></path>
<path d="M5630 5285 c-55 -18 -106 -64 -131 -119 -19 -43 -25 -131 -10 -155
16 -26 31 0 31 55 0 133 84 202 231 192 76 -6 89 5 34 28 -42 17 -96 17 -155
-1z"></path>
<path d="M4577 5227 c-8 -13 -38 -41 -66 -62 -28 -22 -51 -42 -51 -45 0 -3 41
-5 91 -5 l91 0 -6 41 c-6 45 -25 94 -36 94 -4 0 -15 -10 -23 -23z"></path>
<path d="M5809 5165 c-24 -20 -49 -43 -55 -51 -10 -12 -13 -12 -24 1 -17 21
-46 19 -70 -5 -28 -28 -26 -74 5 -94 46 -30 81 -15 104 46 6 15 33 44 61 64
30 21 50 43 48 52 -5 27 -24 24 -69 -13z m-85 -81 c8 -20 -11 -54 -30 -54 -20
0 -28 24 -14 49 13 25 35 27 44 5z"></path>
<path d="M6159 5112 c-86 -45 -74 -77 21 -59 25 4 91 5 148 1 61 -4 102 -3
102 3 0 5 -12 18 -27 30 -85 62 -158 70 -244 25z"></path>
<path d="M7945 5070 c-37 -47 -40 -49 -62 -35 -12 8 -25 15 -28 15 -9 0 15
-42 38 -67 39 -43 107 -20 123 41 6 25 -12 96 -24 96 -4 0 -25 -22 -47 -50z
m35 -24 c0 -31 -14 -55 -25 -44 -8 7 7 78 16 78 5 0 9 -15 9 -34z"></path>
<path d="M4424 5088 c-7 -11 -9 -9 69 -67 31 -24 57 -47 57 -52 0 -22 -36 -5
-84 37 l-51 47 -3 -68 c-2 -37 1 -72 6 -77 17 -17 114 32 160 79 37 39 62 87
51 97 -11 9 -200 13 -205 4z"></path>
<path d="M4170 5061 c10 -35 39 -81 51 -81 8 0 28 14 125 87 l29 22 -107 0
-107 1 9 -29z"></path>
<path d="M6540 5060 c0 -81 106 -200 179 -200 19 0 19 1 0 61 -10 33 -19 76
-19 94 0 61 -5 65 -86 65 -68 0 -74 -2 -74 -20z"></path>
<path d="M6725 5070 c-8 -13 11 -124 31 -177 19 -51 36 -54 57 -10 21 45 47
140 47 171 0 25 -2 26 -64 26 -36 0 -68 -4 -71 -10z"></path>
<path d="M6910 5070 c0 -5 16 -20 35 -32 19 -13 39 -34 43 -48 8 -23 10 -22
25 24 9 27 14 52 11 57 -7 12 -114 11 -114 -1z"></path>
<path d="M4323 5010 c-28 -27 -58 -50 -65 -50 -19 -1 52 -36 88 -44 30 -7 31
-5 38 31 8 53 8 113 -2 113 -4 0 -31 -22 -59 -50z"></path>
<path d="M6886 5039 c-10 -57 -34 -155 -41 -172 -7 -18 -6 -18 31 1 21 11 52
33 67 50 l28 29 -40 58 c-36 51 -41 55 -45 34z"></path>
<path d="M6118 5013 c-10 -2 -18 -8 -18 -13 0 -13 79 -80 106 -90 69 -27 160
2 207 66 18 24 18 24 -10 35 -15 6 -41 8 -58 5 -77 -16 -125 -18 -125 -7 0 11
-66 14 -102 4z"></path>
<path d="M4611 4967 c-11 -18 -32 -39 -46 -47 -14 -7 -23 -15 -21 -18 9 -8 67
40 81 69 21 39 11 37 -14 -4z"></path>
<path d="M5660 4935 c-10 -27 2 -75 19 -75 37 0 53 38 35 84 -10 25 -43 19
-54 -9z m46 -19 c6 -25 -1 -46 -15 -46 -10 0 -19 40 -13 58 6 20 21 14 28 -12z"></path>
<path d="M4245 4931 c23 -26 75 -55 120 -65 41 -10 20 7 -30 23 -22 7 -56 25
-75 39 -32 24 -33 24 -15 3z"></path>
<path d="M7620 4912 c-22 -10 -42 -32 -54 -56 -17 -36 -18 -43 -5 -80 26 -74
109 -106 184 -70 54 25 75 107 41 159 -22 33 -74 65 -106 65 -14 0 -41 -8 -60
-18z m71 -52 c23 -13 25 -57 3 -88 -21 -31 -34 -27 -34 10 0 17 -7 39 -16 49
-28 31 4 51 47 29z"></path>
<path d="M4000 4885 c-17 -20 -5 -62 21 -70 36 -12 73 41 49 70 -16 19 -54 19
-70 0z"></path>
<path d="M4495 4890 c-11 -5 -32 -9 -47 -9 -16 -1 -28 -5 -28 -10 0 -10 74 4
99 19 20 12 3 12 -24 0z"></path>
<path d="M4581 4819 c-31 -29 -26 -85 10 -112 30 -21 54 -18 87 14 28 25 28
59 1 93 -25 32 -66 34 -98 5z"></path>
<path d="M6416 4784 c-22 -21 -20 -47 4 -69 18 -17 21 -17 45 -1 15 10 25 26
25 39 0 44 -43 62 -74 31z"></path>
<path d="M5326 4774 c-8 -21 1 -34 24 -34 10 0 21 4 24 9 10 16 -5 41 -24 41
-10 0 -21 -7 -24 -16z"></path>
<path d="M3659 4758 c-8 -15 -10 -49 -5 -105 5 -72 10 -87 31 -106 32 -30 55
-89 43 -111 -28 -50 2 -117 43 -95 23 12 25 65 4 89 -14 15 -13 23 9 73 15 33
33 58 46 62 18 6 20 14 20 95 0 49 -3 95 -6 104 -5 13 -23 16 -90 16 -75 0
-84 -2 -95 -22z m156 -10 c-5 -13 -10 -53 -12 -90 -5 -73 -9 -77 -80 -69 -32
3 -33 4 -33 52 0 27 5 49 10 49 6 0 10 -4 10 -10 0 -5 19 -9 43 -8 40 1 40 1
7 5 -37 5 -77 37 -60 48 6 3 16 3 23 -2 6 -4 20 -6 31 -4 10 1 23 -3 27 -11 6
-9 9 -7 9 10 0 20 -5 22 -54 22 -51 0 -74 9 -59 24 3 3 38 6 76 6 68 0 69 -1
62 -22z m-40 -218 c-4 -6 -10 -8 -15 -5 -4 3 -10 0 -12 -6 -2 -7 -9 -5 -17 5
-12 14 -10 16 18 16 19 0 30 -4 26 -10z"></path>
<path d="M6116 4752 c24 -8 61 -12 97 -9 51 5 57 3 57 -14 0 -16 -4 -17 -26
-9 -14 6 -34 10 -45 10 -20 0 -119 -85 -119 -102 0 -8 45 14 106 53 25 15 37
17 58 9 23 -8 26 -15 26 -53 l0 -44 -105 -1 c-120 -1 -127 3 -105 67 8 25 9
47 2 71 l-9 35 -12 -28 c-6 -16 -11 -57 -11 -93 l0 -64 125 0 125 0 6 26 c6
24 0 142 -8 149 -1 1 -47 5 -102 7 -93 4 -96 3 -60 -10z"></path>
<path d="M7120 4730 c-24 -24 -25 -43 -4 -64 20 -20 38 -20 59 0 22 23 15 65
-13 75 -17 6 -27 4 -42 -11z"></path>
<path d="M6716 4719 c-112 -18 -208 -66 -284 -139 -34 -33 -88 -108 -81 -113
2 -1 20 -10 39 -18 l35 -16 53 53 c65 67 120 102 195 126 72 22 137 23 229 2
65 -15 74 -15 104 0 19 8 34 20 34 25 0 15 -41 37 -110 59 -80 25 -150 32
-214 21z"></path>
<path d="M5820 4705 c-11 -13 -9 -20 10 -40 13 -14 29 -25 37 -25 15 0 28 43
19 65 -7 20 -50 19 -66 0z"></path>
<path d="M4070 4706 c0 -9 40 -13 46 -5 3 5 -6 9 -20 9 -14 0 -26 -2 -26 -4z"></path>
<path d="M5584 4696 c-12 -31 0 -51 31 -51 27 0 30 3 30 30 0 25 -4 30 -28 33
-17 2 -29 -2 -33 -12z"></path>
<path d="M4040 4662 c6 -13 14 -21 18 -18 3 4 -2 14 -12 24 -18 16 -18 16 -6
-6z"></path>
<path d="M4166 4658 c-38 -10 -81 -28 -97 -39 -76 -54 -129 -155 -129 -247 0
-33 -4 -42 -17 -43 -17 0 -17 -1 0 -8 10 -4 19 -11 19 -16 0 -6 4 -20 9 -33 5
-13 11 -33 15 -46 3 -12 18 -38 35 -57 16 -19 29 -37 29 -41 0 -5 7 -8 15 -8
7 0 18 -6 22 -12 4 -7 17 -18 28 -24 30 -17 123 -37 140 -30 8 3 19 -3 24 -12
9 -15 10 -15 11 -1 0 13 14 18 57 24 46 6 68 15 113 50 107 82 140 203 96 350
-14 49 -29 71 -74 115 -85 83 -181 108 -296 78z m45 -40 c0 -10 2 -10 6 0 2 6
13 12 24 12 16 0 18 -5 14 -27 l-5 -28 11 28 c14 37 29 34 31 -5 l1 -33 4 33
c2 17 7 32 11 32 37 -3 156 -104 148 -126 -3 -8 -1 -13 5 -11 13 3 48 -79 48
-115 1 -16 -5 -28 -11 -29 -9 0 -10 -2 -1 -5 24 -10 -19 -154 -47 -154 -6 0
-10 -7 -10 -15 0 -8 -7 -15 -16 -15 -8 0 -12 -5 -9 -10 9 -15 -23 -24 -39 -11
-12 10 -13 8 -9 -7 6 -25 -35 -42 -48 -21 -7 11 -9 10 -9 -3 0 -27 -30 -22
-31 5 l-2 22 -4 -22 c-5 -24 -32 -32 -34 -10 0 10 -2 10 -6 0 -13 -33 -98 -5
-157 51 -38 36 -38 37 -20 58 19 21 19 21 -5 9 -28 -16 -35 -10 -55 52 -19 58
-21 141 -3 159 8 7 12 18 10 25 -5 13 32 88 47 98 6 4 19 1 28 -7 15 -12 16
-11 3 5 -8 9 -11 20 -8 24 4 3 15 0 24 -8 16 -13 17 -12 4 4 -12 15 -9 21 12
18 4 0 7 4 7 9 0 12 36 14 43 3 2 -5 2 -3 1 4 -3 10 10 17 39 22 4 0 7 -5 8
-11z"></path>
<path d="M4350 4568 c-12 -22 -12 -22 6 -6 10 10 15 20 12 24 -4 3 -12 -5 -18
-18z"></path>
<path d="M4212 4565 c0 -11 4 -31 8 -45 6 -20 8 -21 8 -5 0 11 -4 31 -8 45 -6
20 -8 21 -8 5z"></path>
<path d="M4150 4551 c0 -6 4 -13 10 -16 6 -3 7 1 4 9 -7 18 -14 21 -14 7z"></path>
<path d="M4325 4529 c-4 -6 -5 -12 -2 -15 2 -3 7 2 10 11 7 17 1 20 -8 4z"></path>
<path d="M4036 4511 c5 -5 20 -12 34 -15 l25 -7 -25 15 c-28 17 -50 21 -34 7z"></path>
<path d="M4135 4500 c10 -11 20 -20 23 -20 3 0 -3 9 -13 20 -10 11 -20 20 -23
20 -3 0 3 -9 13 -20z"></path>
<path d="M4295 4430 c-3 -5 -3 -16 0 -22 4 -7 0 -5 -8 5 -19 23 -60 22 -82 -3
-10 -11 -21 -18 -24 -15 -4 2 -8 -8 -9 -22 -1 -15 8 -37 23 -55 14 -16 25 -26
25 -22 0 5 5 3 11 -3 15 -15 54 4 85 39 19 22 19 26 5 35 -10 6 -15 21 -13 41
2 33 -2 40 -13 22z m-17 -32 c21 -21 14 -56 -14 -75 -25 -16 -27 -16 -45 8
-23 30 -23 38 -2 61 19 21 44 23 61 6z"></path>
<path d="M4458 4433 c7 -3 16 -2 19 1 4 3 -2 6 -13 5 -11 0 -14 -3 -6 -6z"></path>
<path d="M4354 4408 l-19 -23 23 19 c21 18 27 26 19 26 -2 0 -12 -10 -23 -22z"></path>
<path d="M4367 4269 c7 -7 15 -10 18 -7 3 3 -2 9 -12 12 -14 6 -15 5 -6 -5z"></path>
<path d="M4340 4246 c0 -2 8 -10 18 -17 15 -13 16 -12 3 4 -13 16 -21 21 -21
13z"></path>
<path d="M4320 4221 c0 -6 4 -13 10 -16 6 -3 7 1 4 9 -7 18 -14 21 -14 7z"></path>
<path d="M4292 4179 c6 -16 12 -28 14 -26 5 5 -13 57 -20 57 -3 0 0 -14 6 -31z"></path>
<path d="M5677 4619 c-26 -23 -47 -48 -47 -55 0 -19 57 -46 96 -46 28 0 104
35 104 48 0 5 -90 88 -99 92 -4 1 -28 -16 -54 -39z"></path>
<path d="M7099 4633 c-1 -5 -2 -40 -3 -80 -1 -67 -3 -74 -35 -107 -41 -42 -49
-43 -82 -15 -34 29 -97 62 -144 74 -30 8 -41 17 -43 33 -2 14 2 22 11 22 34 0
140 -40 172 -64 33 -25 65 -34 65 -18 0 12 -84 69 -127 87 -50 21 -138 31
-147 16 -12 -19 -46 -144 -41 -150 3 -2 18 8 34 23 l28 27 55 -24 c31 -14 81
-41 112 -61 58 -37 76 -43 76 -26 0 5 11 17 25 26 24 15 25 15 51 -15 14 -17
31 -31 37 -31 6 0 -2 14 -20 31 l-31 31 24 36 c20 29 24 47 24 113 0 72 -2 79
-20 79 -11 0 -20 -3 -21 -7z"></path>
<path d="M4680 4458 l0 -171 21 19 c30 27 173 113 179 107 6 -6 -23 -29 -122
-96 -43 -28 -77 -58 -78 -64 0 -10 31 -13 124 -13 l125 0 67 50 c82 63 106 60
39 -3 l-50 -47 174 0 174 0 -44 33 c-24 18 -69 50 -100 70 -31 20 -64 46 -74
57 -34 38 -5 33 54 -8 33 -23 64 -42 70 -42 6 0 34 14 62 32 l52 32 -27 23
c-27 23 -27 23 -332 23 -257 0 -304 2 -304 14 0 12 50 15 316 18 l317 3 33
-32 c19 -17 34 -36 34 -42 0 -6 -25 -27 -55 -47 -30 -20 -55 -40 -55 -44 0
-15 30 -19 60 -9 32 12 60 6 60 -11 0 -5 -13 -10 -29 -10 -17 0 -32 -3 -35 -8
-6 -10 15 -37 42 -51 12 -6 22 -18 22 -25 0 -11 -67 -12 -360 -9 l-360 4 0
-31 0 -30 368 2 367 3 2 238 2 237 -370 0 -369 0 0 -172z"></path>
<path d="M7014 4575 c-10 -8 -14 -14 -9 -15 15 0 40 18 34 24 -3 3 -14 -1 -25
-9z"></path>
<path d="M7288 4438 c39 -73 97 -182 130 -242 l60 -108 37 63 c45 76 215 403
215 412 0 4 -115 7 -256 7 l-256 0 70 -132z m83 52 c10 -6 26 -24 34 -41 10
-19 32 -37 61 -49 24 -11 44 -21 44 -24 0 -3 -17 -3 -37 -1 -21 2 -49 4 -64 4
-20 1 -30 11 -47 46 -21 44 -28 75 -16 75 3 0 14 -5 25 -10z m252 3 c3 -5 -6
-33 -20 -63 l-24 -55 -32 50 c-18 27 -32 51 -32 54 0 13 101 26 108 14z m-103
-200 c0 -13 -26 -82 -32 -89 -4 -3 -18 17 -32 45 l-26 51 45 0 c25 0 45 -3 45
-7z"></path>
<path d="M5524 4545 c-3 -8 4 -26 15 -41 26 -33 26 -40 2 -70 -23 -29 -36
-130 -21 -169 14 -38 26 -23 39 50 6 33 22 82 36 109 l25 49 -21 43 c-16 34
-26 44 -45 44 -14 0 -27 -7 -30 -15z"></path>
<path d="M5866 4538 c-27 -43 -29 -75 -7 -111 11 -19 27 -64 35 -101 7 -37 16
-70 19 -73 14 -14 27 13 27 55 0 62 -16 115 -40 137 -26 23 -25 29 6 59 17 15
25 30 21 40 -9 23 -44 20 -61 -6z"></path>
<path d="M5669 4427 c-52 -34 -49 -57 11 -90 56 -31 69 -30 119 13 l35 30 -40
34 c-46 41 -78 45 -125 13z"></path>
<path d="M6215 4427 c-15 -24 -32 -87 -22 -87 3 0 14 15 26 33 11 17 28 42 37
55 16 21 15 22 -5 22 -11 0 -27 -10 -36 -23z"></path>
<path d="M6528 4383 c-36 -20 -54 -39 -73 -77 -25 -50 -33 -110 -16 -121 5 -3
13 -20 16 -38 12 -52 50 -119 92 -159 58 -57 124 -82 213 -82 98 -1 173 34
230 105 47 60 64 106 64 181 1 52 2 55 18 41 15 -13 19 -12 37 6 12 12 21 28
21 36 0 19 -43 61 -71 68 -16 4 -19 2 -14 -14 9 -28 -38 -25 -91 6 -51 30 -56
28 -150 -42 -93 -69 -102 -88 -75 -141 19 -37 19 -42 5 -56 -26 -26 -43 -19
-49 22 -17 96 -81 283 -100 288 -6 2 -31 -8 -57 -23z m469 -219 c8 -21 -14
-81 -43 -120 -13 -17 -48 -44 -76 -60 -125 -68 -288 -12 -342 118 -21 49 -20
68 2 68 12 0 23 -13 31 -37 42 -118 160 -173 266 -124 51 24 88 64 115 124 22
49 36 58 47 31z"></path>
<path d="M8240 4380 c-12 -12 -20 -33 -20 -55 0 -70 77 -102 119 -49 28 35 26
69 -4 99 -29 30 -68 32 -95 5z"></path>
<path d="M6675 4370 c-8 -24 12 -90 27 -90 14 0 138 92 138 102 0 4 -16 8 -35
8 -24 0 -35 -5 -35 -15 0 -8 -7 -15 -16 -15 -8 0 -13 4 -10 9 3 5 -1 12 -10
15 -30 11 -53 6 -59 -14z"></path>
<path d="M3915 4360 c3 -5 8 -10 11 -10 2 0 4 5 4 10 0 6 -5 10 -11 10 -5 0
-7 -4 -4 -10z"></path>
<path d="M4590 4345 c-11 -13 -10 -14 4 -9 9 3 16 10 16 15 0 13 -6 11 -20 -6z"></path>
<path d="M5610 4300 c0 -28 4 -40 14 -40 20 0 29 35 16 60 -17 32 -30 23 -30
-20z"></path>
<path d="M5814 4315 c-3 -14 -3 -32 0 -41 7 -17 32 -14 30 4 -1 7 -2 23 -2 37
-2 32 -20 32 -28 0z"></path>
<path d="M6215 4331 c-3 -5 -29 -7 -58 -4 -47 5 -56 2 -85 -22 -28 -23 -32
-33 -32 -74 0 -54 33 -181 57 -217 50 -77 150 -67 194 18 16 32 20 57 19 117
-3 109 -2 113 12 139 11 21 10 26 -7 38 -21 16 -91 19 -100 5z"></path>
<path d="M8374 4269 c-16 -17 -47 -44 -68 -60 -21 -16 -33 -29 -25 -29 8 0 38
23 67 50 29 28 57 50 62 50 6 0 10 5 10 10 0 18 -16 11 -46 -21z"></path>
<path d="M5575 4114 c-40 -62 -47 -111 -24 -170 6 -16 16 -60 23 -97 l12 -69
70 74 70 73 53 -57 c59 -65 91 -75 91 -30 0 16 7 51 15 78 22 72 19 110 -16
186 -33 70 -42 80 -53 52 -8 -22 -89 -133 -97 -133 -4 -1 -29 33 -56 74 l-50
76 -38 -57z m57 -71 c9 -16 26 -38 38 -51 l22 -23 -36 -40 c-39 -43 -39 -43
-55 39 -11 51 -6 102 8 102 4 0 14 -12 23 -27z m211 -52 c-1 -32 -5 -67 -10
-76 -9 -15 -14 -12 -41 22 l-31 39 31 48 c38 58 51 49 51 -33z"></path>
<path d="M7280 4150 c0 -5 5 -10 10 -10 6 0 10 5 10 10 0 6 -4 10 -10 10 -5 0
-10 -4 -10 -10z"></path>
<path d="M7200 4121 c0 -6 4 -11 9 -11 5 0 11 -13 15 -30 3 -17 12 -30 20 -30
23 0 30 -39 12 -59 -20 -22 -10 -34 15 -20 14 7 17 16 13 33 -6 27 5 39 25 26
11 -6 11 -15 2 -40 -6 -18 -11 -44 -11 -58 0 -21 2 -23 15 -12 24 20 31 3 9
-22 -19 -21 -19 -21 5 -15 20 5 22 3 19 -18 -4 -20 -3 -22 14 -12 22 14 23 23
3 31 -11 4 -14 13 -9 31 3 14 2 25 -2 24 -22 -4 -34 2 -34 16 0 11 10 14 38
12 20 -1 43 -6 50 -11 24 -15 25 3 1 23 -14 11 -28 16 -34 11 -17 -14 -38 5
-31 28 5 14 1 21 -14 25 -11 3 -20 12 -20 20 0 29 19 28 41 -2 22 -30 39 -32
39 -5 0 8 -9 14 -20 14 -23 0 -27 29 -8 48 9 9 9 12 0 12 -7 0 -15 -7 -18 -15
-4 -8 -10 -13 -15 -10 -4 3 -15 -8 -24 -25 -21 -40 -37 -38 -61 7 -19 36 -44
55 -44 34z"></path>
<path d="M7260 4118 c0 -7 5 -20 10 -28 8 -13 10 -12 10 3 0 9 0 20 1 24 0 4
-4 9 -10 11 -6 2 -11 -2 -11 -10z"></path>
<path d="M8150 4116 c-18 -23 -8 -59 22 -75 24 -14 28 -14 47 3 23 21 27 56 9
74 -17 17 -63 15 -78 -2z"></path>
<path d="M5413 4098 c-11 -18 -17 -278 -6 -289 5 -5 24 -6 41 -3 30 6 32 9 32
48 0 53 -40 256 -51 256 -4 0 -11 -6 -16 -12z"></path>
<path d="M7386 4097 c3 -10 9 -15 12 -12 3 3 0 11 -7 18 -10 9 -11 8 -5 -6z"></path>
<path d="M4470 4062 c0 -17 5 -29 13 -29 9 0 12 9 9 24 -7 35 -22 39 -22 5z"></path>
<path d="M4757 4073 c-4 -3 -7 -17 -7 -30 0 -18 6 -23 24 -23 31 0 40 14 26
40 -11 20 -31 26 -43 13z"></path>
<path d="M7187 4059 c5 -18 3 -20 -15 -15 -29 10 -40 -28 -16 -55 10 -11 12
-19 6 -19 -7 0 -12 -4 -12 -10 0 -5 10 -10 21 -10 20 0 21 1 5 25 -9 14 -14
30 -11 35 3 6 1 10 -5 10 -6 0 -8 4 -5 10 8 13 45 -10 45 -28 0 -20 34 -10 38
11 2 12 -3 17 -17 17 -16 0 -21 6 -21 25 0 14 -4 25 -9 25 -5 0 -7 -10 -4 -21z"></path>
<path d="M4431 4054 c0 -11 3 -14 6 -6 3 7 2 16 -1 19 -3 4 -6 -2 -5 -13z"></path>
<path d="M5957 4063 c-11 -10 -8 -53 4 -53 6 0 19 5 30 10 15 9 17 15 9 30
-11 20 -31 26 -43 13z"></path>
<path d="M4390 4051 c0 -5 7 -12 16 -15 14 -5 15 -4 4 9 -14 17 -20 19 -20 6z"></path>
<path d="M4510 4044 c0 -8 5 -12 10 -9 6 3 10 10 10 16 0 5 -4 9 -10 9 -5 0
-10 -7 -10 -16z"></path>
<path d="M8383 4034 c-19 -29 -31 -134 -15 -134 5 0 13 8 17 17 5 14 10 8 26
-26 10 -24 19 -47 19 -52 0 -20 -21 -7 -40 24 l-20 32 0 -47 c0 -36 4 -48 15
-48 24 0 18 -11 -31 -61 l-47 -47 41 -29 c28 -19 39 -33 35 -43 -10 -23 -9
-84 1 -90 9 -5 20 11 31 44 12 40 17 5 5 -43 -15 -62 -27 -71 -51 -40 -23 30
-24 15 -3 -65 19 -74 30 -88 63 -84 20 2 27 9 29 31 2 18 -1 27 -11 27 -32 0
-26 31 13 69 45 43 49 60 20 86 -24 22 -25 38 -4 56 14 11 19 10 35 -10 26
-32 24 -74 -6 -109 -45 -53 -33 -64 35 -35 l60 26 23 -20 c33 -30 48 -37 41
-19 -13 34 9 37 41 6 33 -32 37 -60 9 -60 -18 0 -18 -21 -1 -44 22 -30 53 -12
71 41 16 47 22 138 8 116 -6 -9 -17 -9 -52 1 -26 7 -39 16 -32 20 7 4 21 4 32
1 18 -6 20 -2 20 34 0 27 -6 44 -18 53 -10 7 -21 21 -25 31 -3 9 -13 17 -22
17 -10 0 -15 10 -15 28 0 36 45 66 61 42 5 -8 8 -26 5 -40 -11 -59 -10 -64 4
-67 15 -3 110 79 110 96 0 4 -13 14 -29 21 -16 6 -39 22 -51 35 l-21 23 20 33
c14 23 21 51 21 86 0 129 -82 196 -105 86 -6 -32 -6 -33 24 -27 17 4 31 3 31
-2 -1 -21 -19 -33 -70 -46 -40 -10 -58 -21 -67 -39 -11 -21 -18 -20 -14 3 0 4
-9 10 -22 13 -112 31 -157 50 -154 64 2 10 12 15 25 14 26 -3 28 9 5 48 -21
36 -47 37 -70 3z m392 -155 c0 -17 -6 -25 -22 -27 -26 -4 -29 9 -11 38 16 26
33 20 33 -11z m-226 -46 c17 -16 20 -23 9 -23 -8 0 -23 -9 -33 -20 -22 -24
-63 -26 -72 -4 -3 8 4 25 16 38 11 12 21 29 21 37 0 25 14 32 25 13 5 -10 21
-28 34 -41z m121 18 c0 -9 7 -26 15 -37 33 -43 11 -56 -48 -28 l-34 16 25 39
c25 39 42 43 42 10z m-69 -101 c10 -6 25 -23 34 -39 14 -28 13 -30 -21 -65
-40 -41 -52 -38 -80 15 -19 38 -18 46 12 74 31 29 29 28 55 15z m-138 -28 c14
-15 23 -32 19 -38 -6 -10 -64 -44 -74 -44 -2 0 1 25 6 55 6 30 13 55 16 55 4
0 18 -12 33 -28z m211 -134 c15 -22 13 -32 -17 -72 -14 -19 -15 -19 -31 13
-16 30 -16 35 -1 57 19 30 30 30 49 2z m-80 -65 c4 -10 4 -14 1 -11 -4 4 -18
3 -31 -2 -28 -11 -33 4 -6 19 24 14 29 13 36 -6z"></path>
<path d="M8496 3843 c-12 -12 -6 -33 9 -33 8 0 15 6 15 14 0 17 -14 28 -24 19z"></path>
<path d="M4291 4034 c0 -11 3 -14 6 -6 3 7 2 16 -1 19 -3 4 -6 -2 -5 -13z"></path>
<path d="M7406 4034 c-9 -24 -7 -28 8 -15 11 9 15 9 19 -1 3 -7 6 -3 6 10 1
25 -24 30 -33 6z"></path>
<path d="M8552 4028 c-14 -18 -44 -79 -40 -83 2 -1 31 -5 66 -8 57 -5 62 -3
62 14 0 11 -7 35 -14 54 -11 26 -21 35 -39 35 -14 0 -29 -6 -35 -12z"></path>
<path d="M4953 3778 c3 -139 10 -269 16 -288 19 -71 21 -90 11 -90 -5 0 -10
11 -10 25 0 14 -9 33 -21 43 -11 9 -38 33 -59 53 l-39 36 -36 -29 c-37 -31
-44 -48 -22 -48 8 0 22 -9 32 -20 10 -11 20 -18 22 -16 3 2 20 -6 39 -19 19
-13 40 -26 47 -28 18 -7 1 -19 -30 -22 -40 -3 -83 -22 -82 -37 0 -10 2 -10 6
0 2 6 11 12 18 12 10 0 6 -13 -13 -40 -16 -26 -31 -39 -40 -35 -9 3 -12 0 -9
-9 4 -11 -3 -16 -26 -19 -30 -4 -30 -4 6 -5 34 -2 74 18 62 30 -12 11 52 70
79 72 16 2 35 11 42 20 10 14 12 5 11 -53 -2 -72 13 -93 23 -35 4 19 8 25 13
17 4 -7 3 -31 -4 -53 -10 -32 -17 -40 -36 -40 -26 0 -30 -12 -10 -29 10 -8 17
-7 25 1 8 8 11 0 9 -32 -1 -27 3 -44 11 -47 8 -3 12 9 12 41 0 46 4 50 48 49
7 -1 12 11 12 26 -1 24 -2 24 -14 9 -16 -22 -46 -24 -46 -4 0 8 6 21 13 28 8
7 12 19 9 26 -5 15 17 82 28 82 4 0 13 -7 20 -15 7 -8 18 -15 25 -15 7 0 18
-7 25 -15 8 -9 8 -15 2 -15 -6 0 -12 6 -15 13 -2 6 -8 9 -12 5 -4 -4 5 -18 20
-32 15 -14 24 -30 20 -37 -4 -6 -2 -15 6 -19 24 -15 30 1 10 29 -11 15 -19 33
-19 41 2 35 -4 46 -35 68 -47 31 -64 29 -71 -13 -4 -19 -11 -35 -16 -35 -15 0
-40 31 -40 51 0 27 9 24 22 -8 l11 -28 7 33 c11 50 23 57 60 39 29 -15 31 -15
28 1 -2 9 -14 19 -28 22 -20 5 -22 8 -10 15 71 46 113 47 161 4 l34 -31 -22
-18 c-13 -10 -23 -23 -23 -29 0 -14 50 -14 70 -1 12 8 11 10 -7 10 -19 0 -22
4 -17 28 8 40 -52 85 -114 85 -37 0 -42 2 -28 12 9 7 16 19 16 28 0 30 13 47
36 47 26 0 47 -29 39 -57 -3 -10 0 -7 7 6 11 21 9 26 -15 47 -15 13 -27 29
-27 36 0 21 -58 -49 -71 -87 -10 -26 -19 -35 -36 -35 -30 0 -32 39 -3 65 11
10 20 23 20 29 0 6 -11 -2 -23 -18 -26 -32 -30 -30 -45 27 -10 35 -9 39 13 47
13 5 29 18 34 29 19 34 12 37 -13 6 -13 -16 -27 -27 -31 -24 -3 4 -9 93 -12
198 l-6 191 -25 0 -25 0 6 -252z m57 -342 c-7 -7 -10 8 -9 50 l1 59 10 -49 c6
-33 6 -52 -2 -60z m-145 81 c17 -14 17 -15 -2 -34 -23 -23 -53 -14 -53 16 0
33 23 41 55 18z m64 -69 c17 -18 31 -37 31 -43 0 -6 -3 -6 -8 1 -4 5 -22 16
-39 23 -21 9 -33 20 -33 32 0 28 15 23 49 -13z"></path>
<path d="M5196 4023 c-3 -3 -6 -21 -6 -40 0 -33 -1 -33 -45 -33 -47 0 -50 -4
-39 -47 5 -19 13 -23 45 -23 36 0 39 -2 39 -29 0 -72 35 -85 45 -17 7 44 8 45
49 48 38 3 41 5 44 35 3 31 2 32 -40 35 -39 3 -43 6 -46 31 -3 26 -33 53 -46
40z"></path>
<path d="M8016 3984 c-15 -39 -5 -92 23 -132 32 -44 51 -59 51 -42 0 6 19 40
41 76 23 36 40 66 38 68 -9 7 -121 46 -133 46 -8 0 -17 -7 -20 -16z"></path>
<path d="M6375 3949 c-10 -30 18 -58 43 -43 9 6 17 22 17 35 0 34 -50 41 -60
8z"></path>
<path d="M7203 3951 c-10 -16 -9 -20 9 -24 13 -4 19 -11 15 -20 -3 -9 3 -23
14 -33 10 -9 19 -23 19 -31 0 -7 5 -13 10 -13 16 0 11 23 -10 50 -11 14 -20
32 -20 41 0 8 -6 23 -12 32 -12 16 -14 16 -25 -2z"></path>
<path d="M7255 3930 c-3 -5 1 -10 9 -10 9 0 16 5 16 10 0 6 -4 10 -9 10 -6 0
-13 -4 -16 -10z"></path>
<path d="M7390 3930 c0 -5 5 -10 10 -10 6 0 10 5 10 10 0 6 -4 10 -10 10 -5 0
-10 -4 -10 -10z"></path>
<path d="M4017 3923 c-10 -2 -17 -12 -15 -21 6 -33 74 -43 318 -47 129 -2 236
-6 238 -9 9 -23 -9 -26 -142 -26 l-144 0 -5 -27 c-7 -35 -4 -38 43 -38 23 0
36 -3 32 -10 -3 -5 -16 -25 -29 -44 -13 -19 -23 -37 -23 -41 0 -4 32 -11 70
-14 39 -4 70 -11 70 -17 0 -5 -5 -9 -10 -9 -17 0 -60 -47 -60 -65 0 -10 10
-15 30 -15 17 0 41 -7 54 -15 12 -8 43 -18 69 -21 39 -6 47 -4 47 9 0 11 11
17 38 19 29 2 38 8 40 24 3 18 -4 22 -44 28 -26 3 -69 6 -95 6 -48 0 -48 0
-37 25 11 24 15 25 104 25 108 0 88 -17 202 173 l71 117 -42 0 c-42 -1 -42 -1
-87 -77 -25 -42 -57 -93 -73 -114 l-27 -39 -115 0 c-94 0 -115 3 -115 15 0 24
35 35 119 35 l80 0 45 75 c25 42 46 80 46 85 0 6 -110 10 -289 10 -159 0 -301
2 -317 4 -16 2 -37 2 -47 -1z"></path>
<path d="M8278 3922 c-11 -2 -20 -17 -24 -39 -8 -42 14 -66 56 -61 22 3 25 8
25 47 0 46 -18 62 -57 53z"></path>
<path d="M7170 3910 c0 -5 5 -10 10 -10 6 0 10 5 10 10 0 6 -4 10 -10 10 -5 0
-10 -4 -10 -10z"></path>
<path d="M8820 3895 c-13 -35 -13 -39 8 -58 25 -22 45 -21 67 3 28 31 10 74
-33 78 -27 3 -34 -1 -42 -23z"></path>
<path d="M7387 3895 c3 -8 9 -12 14 -9 12 7 11 11 -5 17 -10 4 -13 1 -9 -8z"></path>
<path d="M6048 3863 c-40 -6 -34 -21 9 -25 27 -2 39 -8 41 -20 3 -15 -4 -18
-37 -18 -29 0 -41 -4 -41 -15 0 -18 48 -43 72 -38 9 2 26 -5 37 -16 12 -12 26
-21 31 -21 18 0 11 19 -12 32 -21 12 -19 13 32 18 40 4 55 9 55 20 0 10 -14
17 -48 21 -49 5 -67 19 -67 52 0 17 -12 19 -72 10z"></path>
<path d="M6147 3863 c-33 -8 -11 -28 28 -26 44 3 55 10 35 23 -16 10 -33 11
-63 3z"></path>
<path d="M7300 3849 c7 -11 14 -18 17 -15 8 8 -5 36 -17 36 -7 0 -7 -6 0 -21z"></path>
<path d="M6384 3775 c-39 -95 -39 -132 1 -292 50 -198 68 -239 111 -255 41
-15 49 -36 41 -119 -6 -71 7 -125 33 -139 11 -6 111 -10 242 -10 282 0 270 -6
244 119 -23 115 -19 132 36 151 39 13 47 22 80 87 20 40 42 99 48 130 6 32 23
87 36 123 13 36 24 80 24 97 0 37 -19 53 -130 104 l-75 34 -338 3 -338 3 -15
-36z m511 -54 c49 -28 76 -86 72 -152 -5 -91 -64 -149 -150 -149 -67 0 -113
24 -142 75 -88 150 69 311 220 226z m5 -366 c0 -25 -1 -25 -89 -25 -90 0 -108
7 -97 35 4 12 26 15 96 15 89 0 90 0 90 -25z"></path>
<path d="M8800 3802 c0 -13 57 -61 87 -75 36 -16 28 -40 -21 -60 -64 -26 -83
-53 -75 -102 6 -37 6 -38 8 -8 1 40 21 60 74 73 85 21 118 52 100 93 -9 20
-24 28 -67 37 -30 6 -66 20 -80 31 -14 11 -26 16 -26 11z"></path>
<path d="M8331 3779 c-13 -10 -37 -19 -55 -19 -61 0 -113 -50 -88 -86 15 -22
58 -44 85 -44 16 0 37 -5 49 -11 25 -14 33 -6 19 19 -6 11 -28 26 -48 33 -51
16 -53 17 -47 34 3 8 22 15 41 17 25 2 42 11 56 29 26 35 18 53 -12 28z"></path>
<path d="M7928 3768 c-27 -23 -48 -62 -48 -91 0 -91 108 -156 189 -114 41 21
34 32 -17 29 -40 -3 -54 1 -78 21 -23 20 -29 33 -29 67 0 36 6 46 35 71 l35
28 -36 1 c-19 0 -42 -6 -51 -12z"></path>
<path d="M5665 3711 c-116 -54 -175 -154 -175 -295 0 -54 -5 -81 -21 -111 -27
-50 -45 -244 -29 -306 26 -96 161 -183 305 -198 44 -5 97 -16 119 -25 98 -41
258 7 378 114 76 68 102 130 95 225 -9 120 -61 207 -155 258 -46 25 -52 26
-66 11 -20 -19 -21 -63 -2 -70 14 -5 66 -121 66 -147 0 -8 -13 -13 -34 -14
-45 -1 -56 -9 -56 -38 0 -48 75 -107 95 -75 9 15 35 -8 35 -30 0 -30 -95 -98
-146 -106 -33 -5 -49 -14 -65 -35 -30 -43 -55 -38 -62 12 -3 22 -13 49 -23 60
-18 19 -18 19 -38 -5 -16 -19 -36 -27 -91 -35 -38 -6 -70 -9 -71 -8 -1 1 0 14
3 28 4 20 10 25 26 22 12 -2 28 1 36 6 12 8 12 14 -3 45 -19 40 -34 52 -47 39
-6 -6 -6 -20 0 -36 13 -33 9 -33 -54 1 l-50 28 0 144 c0 144 0 145 -34 213
-28 57 -32 74 -27 111 17 112 102 179 230 179 90 0 124 -17 170 -86 44 -66 56
-77 130 -116 68 -36 120 -41 136 -12 16 31 14 34 -54 69 -35 18 -102 68 -149
111 -96 88 -128 101 -238 101 -61 0 -85 -5 -134 -29z"></path>
<path d="M4910 3661 c0 -5 5 -13 10 -16 6 -3 10 -2 10 4 0 5 -4 13 -10 16 -5
3 -10 2 -10 -4z"></path>
<path d="M4860 3635 c0 -14 -4 -25 -10 -25 -5 0 -10 -9 -10 -20 0 -25 -8 -25
-33 -2 -19 16 -20 16 -8 -5 15 -30 29 -37 44 -21 17 16 38 98 26 98 -5 0 -9
-11 -9 -25z"></path>
<path d="M5101 3628 c13 -21 27 -38 32 -38 15 0 6 17 -24 46 l-32 29 24 -37z"></path>
<path d="M5175 3631 c-2 -5 4 -11 15 -14 11 -3 20 -2 20 3 0 12 -28 21 -35 11z"></path>
<path d="M4798 3623 c7 -3 16 -2 19 1 4 3 -2 6 -13 5 -11 0 -14 -3 -6 -6z"></path>
<path d="M4905 3610 c3 -5 13 -10 21 -10 8 0 12 5 9 10 -3 6 -13 10 -21 10 -8
0 -12 -4 -9 -10z"></path>
<path d="M5790 3598 c0 -13 9 -43 21 -67 11 -25 17 -51 14 -59 -7 -19 46 -160
64 -167 22 -8 41 14 47 57 8 47 19 56 36 28 15 -24 50 -26 72 -4 26 25 19 50
-19 73 -19 11 -50 42 -67 68 -53 77 -75 93 -124 93 -39 0 -44 -3 -44 -22z"></path>
<path d="M5683 3595 c-32 -22 -63 -78 -63 -113 0 -16 16 -63 35 -104 20 -41
38 -92 41 -114 10 -75 14 -84 34 -84 11 0 20 3 21 8 0 4 2 25 3 46 3 35 19 59
48 68 5 2 2 21 -8 43 -11 27 -14 53 -10 84 4 27 2 49 -6 58 -6 7 -19 37 -28
66 -18 56 -33 66 -67 42z"></path>
<path d="M8252 3555 c-7 -14 -12 -32 -12 -39 0 -19 33 -46 57 -46 30 0 45 24
41 67 -3 36 -5 38 -39 41 -30 3 -37 -1 -47 -23z"></path>
<path d="M8832 3557 c-12 -13 -22 -31 -22 -40 0 -17 36 -47 57 -47 20 0 43 30
43 59 0 52 -41 67 -78 28z"></path>
<path d="M4894 3559 c-3 -6 -1 -16 5 -22 8 -8 11 -7 11 5 0 9 6 19 13 21 7 3
6 6 -5 6 -9 1 -20 -4 -24 -10z"></path>
<path d="M4755 3550 c3 -5 16 -10 28 -9 21 0 21 1 2 9 -28 12 -37 12 -30 0z"></path>
<path d="M5147 3543 c-4 -3 2 -13 14 -21 11 -8 22 -12 25 -10 2 3 -4 12 -14
21 -10 10 -22 14 -25 10z"></path>
<path d="M5277 3543 c-14 -13 -6 -23 18 -23 28 0 34 15 9 24 -19 7 -19 7 -27
-1z"></path>
<path d="M4930 3516 c0 -9 5 -16 10 -16 6 0 10 4 10 9 0 6 -4 13 -10 16 -5 3
-10 -1 -10 -9z"></path>
<path d="M7830 3443 c0 -52 39 -130 92 -186 42 -45 78 -61 78 -34 0 6 -5 32
-11 57 -26 117 -27 118 -90 160 -33 22 -62 40 -65 40 -2 0 -4 -17 -4 -37z"></path>
<path d="M4780 3446 c0 -8 5 -18 10 -21 6 -3 10 1 10 9 0 8 -4 18 -10 21 -5 3
-10 -1 -10 -9z"></path>
<path d="M8548 3439 c-23 -13 -23 -51 0 -72 26 -24 47 -21 71 10 19 23 20 29
8 47 -16 24 -53 31 -79 15z"></path>
<path d="M4749 3433 c-1 -4 -1 -11 0 -15 0 -5 -6 -8 -14 -8 -8 0 -15 -7 -15
-16 0 -10 6 -14 15 -10 8 3 15 1 15 -4 0 -6 7 -10 15 -10 8 0 15 5 15 10 0 6
-5 10 -11 10 -6 0 -8 8 -4 19 3 11 1 22 -5 26 -5 3 -11 3 -11 -2z"></path>
<path d="M5090 3430 c0 -10 68 -25 77 -16 6 6 -40 26 -63 26 -8 0 -14 -4 -14
-10z"></path>
<path d="M7984 3415 c4 -11 15 -61 23 -112 13 -77 19 -92 37 -97 11 -3 31 1
43 10 44 28 24 129 -33 168 -10 7 -32 21 -49 32 -29 19 -29 19 -21 -1z"></path>
<path d="M4543 3413 c-16 -6 -17 -35 -1 -51 7 -7 41 -12 83 -12 l70 1 -24 19
c-28 24 -66 27 -57 5 3 -8 0 -15 -5 -15 -6 0 -9 9 -6 20 7 28 -27 47 -60 33z"></path>
<path d="M5200 3404 c0 -8 5 -12 10 -9 6 3 10 10 10 16 0 5 -4 9 -10 9 -5 0
-10 -7 -10 -16z"></path>
<path d="M4830 3399 c0 -5 9 -9 20 -9 11 0 20 2 20 4 0 2 -9 6 -20 9 -11 3
-20 1 -20 -4z"></path>
<path d="M5142 3361 c-10 -6 -10 -10 3 -21 13 -11 15 -9 15 9 0 24 0 24 -18
12z"></path>
<path d="M7817 3363 c-4 -6 -2 -25 3 -44 6 -19 10 -35 10 -36 0 -2 -21 -3 -46
-3 l-46 0 25 -42 c35 -60 65 -80 125 -81 79 -3 87 15 32 66 -58 53 -69 69 -85
113 -7 20 -15 32 -18 27z"></path>
<path d="M4722 3355 c10 -11 68 -23 68 -15 0 4 -7 11 -16 14 -19 7 -59 8 -52
1z"></path>
<path d="M5183 3342 c-3 -12 -9 -22 -14 -22 -5 0 -9 -4 -9 -10 0 -5 4 -10 8
-10 11 0 34 51 27 58 -3 4 -8 -4 -12 -16z"></path>
<path d="M5990 3325 c-5 -14 -7 -32 -4 -40 8 -21 77 -20 95 1 11 14 10 20 -14
40 -36 31 -65 31 -77 -1z"></path>
<path d="M4871 3311 c-28 -39 -27 -65 4 -79 32 -15 35 -15 35 -2 0 6 -9 10
-19 10 -10 0 -22 7 -25 16 -8 21 -9 18 14 44 19 21 26 40 16 40 -3 0 -14 -13
-25 -29z"></path>
<path d="M8146 3310 c-16 -38 -10 -73 14 -95 22 -20 40 -12 40 16 0 10 10 29
21 40 21 21 21 22 3 39 -11 10 -29 21 -42 25 -19 5 -25 1 -36 -25z"></path>
<path d="M4905 3310 c-3 -5 -1 -10 4 -10 6 0 11 5 11 10 0 6 -2 10 -4 10 -3 0
-8 -4 -11 -10z"></path>
<path d="M5208 3282 c9 -10 19 -17 21 -16 6 5 -20 34 -30 34 -5 0 -1 -8 9 -18z"></path>
<path d="M5165 3260 c10 -11 20 -20 22 -20 2 0 -2 9 -9 20 -7 11 -17 20 -22
20 -5 0 -1 -9 9 -20z"></path>
<path d="M5812 3257 c-16 -18 -12 -77 5 -77 7 0 13 -6 13 -14 0 -20 -25 -37
-44 -30 -24 9 -32 -23 -10 -47 l19 -21 17 22 c10 12 18 29 18 37 0 8 8 13 18
11 9 -1 22 1 29 5 6 4 15 3 18 -3 5 -8 11 -7 21 1 18 15 18 39 -1 39 -8 0 -15
5 -15 11 0 6 9 8 20 4 15 -5 22 0 30 21 14 37 7 40 -34 14 -29 -18 -36 -19
-36 -6 0 14 -36 46 -51 46 -4 0 -11 -6 -17 -13z"></path>
<path d="M4660 3246 c0 -9 7 -12 20 -9 11 3 17 9 14 14 -8 14 -34 10 -34 -5z"></path>
<path d="M4839 3218 c4 -12 19 -29 32 -37 22 -15 22 -14 -5 22 -33 43 -39 46
-27 15z"></path>
<path d="M5980 3224 c0 -8 5 -12 10 -9 6 3 10 10 10 16 0 5 -4 9 -10 9 -5 0
-10 -7 -10 -16z"></path>
<path d="M6086 3225 c-11 -8 -17 -17 -14 -21 7 -6 48 17 48 28 0 12 -13 9 -34
-7z"></path>
<path d="M8364 3216 c-25 -11 -136 -136 -121 -136 2 0 31 27 64 60 66 66 93
74 137 39 37 -29 37 -104 0 -149 -15 -17 -24 -33 -21 -36 9 -9 46 15 62 40 14
20 22 23 60 18 29 -3 45 -1 45 6 0 6 -17 12 -37 14 -36 3 -38 5 -41 42 -4 50
-25 80 -67 100 -39 19 -41 19 -81 2z"></path>
<path d="M4680 3210 c0 -5 7 -7 15 -4 8 4 15 8 15 10 0 2 -7 4 -15 4 -8 0 -15
-4 -15 -10z"></path>
<path d="M5101 3204 c0 -11 3 -14 6 -6 3 7 2 16 -1 19 -3 4 -6 -2 -5 -13z"></path>
<path d="M6012 3208 c-7 -7 -12 -20 -12 -31 0 -10 -5 -15 -11 -12 -12 8 -49
-22 -49 -39 0 -6 13 -23 29 -39 25 -24 30 -26 41 -12 17 20 26 105 11 105 -6
0 -11 5 -11 11 0 5 5 7 10 4 6 -3 10 1 10 9 0 19 -2 20 -18 4z"></path>
<path d="M8089 3177 c-26 -21 -69 -79 -69 -91 0 -13 46 -5 75 12 41 26 62 66
45 87 -16 20 -20 19 -51 -8z"></path>
<path d="M8905 3160 c-27 -16 -56 -39 -62 -52 -16 -29 -17 -112 -2 -140 12
-23 3 -72 -11 -63 -6 3 -10 -2 -10 -12 0 -9 -18 -36 -41 -59 l-41 -41 35 -22
c58 -36 61 -31 57 75 -1 29 3 43 14 47 9 4 16 15 16 26 0 12 18 44 40 73 22
29 44 69 49 88 14 55 20 110 13 109 -4 0 -29 -13 -57 -29z m5 -97 c-1 -16 -7
-39 -15 -53 l-14 -25 -1 30 c0 39 10 75 21 75 5 0 9 -12 9 -27z"></path>
<path d="M7942 3140 c-29 -21 -49 -41 -44 -44 5 -3 26 -8 48 -11 36 -6 41 -4
62 29 47 74 17 86 -66 26z"></path>
<path d="M8768 3133 c-35 -22 -48 -53 -48 -118 0 -57 19 -87 63 -101 32 -10
41 9 28 60 -14 57 -13 92 3 139 12 33 12 37 -3 37 -9 0 -28 -8 -43 -17z m5
-100 c3 -40 1 -53 -9 -53 -15 0 -20 73 -7 106 8 22 10 15 16 -53z"></path>
<path d="M5672 3117 c-28 -29 -28 -44 -1 -52 32 -10 49 13 24 31 -19 15 -19
15 10 12 21 -2 30 1 30 12 0 24 -39 23 -63 -3z"></path>
<path d="M7855 3130 c3 -5 11 -10 16 -10 6 0 7 5 4 10 -3 6 -11 10 -16 10 -6
0 -7 -4 -4 -10z"></path>
<path d="M5274 3080 c-15 -22 -31 -40 -35 -40 -5 0 -18 15 -29 33 l-20 32 0
-30 c0 -29 -1 -30 -45 -28 -40 2 -45 0 -45 -21 0 -30 18 -46 52 -46 26 0 28
-2 22 -27 l-7 -28 32 30 32 30 20 -27 c41 -56 56 -71 68 -67 7 3 -1 20 -24 46
-42 49 -43 55 -10 47 30 -7 75 2 75 16 0 5 -18 13 -40 16 -44 7 -50 22 -20 49
21 19 27 55 10 55 -5 0 -22 -18 -36 -40z"></path>
<path d="M7780 3098 c-24 -9 -40 -25 -40 -42 0 -4 7 -5 15 -2 9 3 15 1 14 -7
-5 -40 8 -47 38 -19 10 9 13 13 5 7 -10 -6 -18 -4 -28 10 -16 22 -18 35 -4 35
6 0 10 -7 10 -15 0 -8 5 -15 11 -15 5 0 8 4 5 9 -4 5 -1 11 6 13 7 3 8 9 2 20
-7 12 -15 13 -34 6z"></path>
<path d="M5842 3080 c-18 -11 -32 -27 -32 -36 0 -23 32 -74 46 -74 15 0 44 27
44 41 0 5 16 9 35 9 42 0 43 9 9 49 -26 32 -54 41 -54 19 0 -10 -2 -10 -8 -1
-6 9 -16 8 -40 -7z"></path>
<path d="M6015 3033 c-8 -10 -14 -21 -13 -24 2 -3 -3 -14 -11 -23 -21 -25 -4
-32 72 -28 78 4 84 15 32 61 -41 35 -59 38 -80 14z"></path>
<path d="M8954 3028 c-47 -53 -75 -125 -89 -231 -6 -48 -6 -49 17 -41 44 13
108 43 108 50 0 3 -25 3 -56 -1 -65 -8 -69 11 -4 21 55 9 99 39 116 79 21 51
19 68 -8 59 -13 -4 -26 -12 -30 -18 -5 -7 -8 -4 -8 7 0 9 -4 17 -10 17 -5 0
-10 -5 -10 -11 0 -6 -13 -27 -30 -47 -16 -20 -39 -48 -50 -62 l-20 -25 9 25
c8 23 67 118 91 147 12 15 13 53 2 53 -5 0 -17 -10 -28 -22z"></path>
<path d="M6440 2995 c-16 -20 -6 -45 19 -45 26 0 34 15 21 40 -13 24 -23 25
-40 5z"></path>
<path d="M7644 2970 c-15 -15 -6 -47 14 -55 19 -7 44 22 40 45 -4 18 -39 25
-54 10z"></path>
<path d="M7970 2954 c-198 -54 -340 -241 -340 -446 l0 -71 39 6 38 5 2 -57 c0
-31 5 -72 11 -91 13 -45 13 -45 -5 -30 -37 31 -10 -6 44 -59 96 -95 221 -162
242 -130 6 9 7 -3 3 -31 -5 -40 -4 -43 9 -27 8 9 34 21 58 27 24 5 56 12 71
16 20 4 35 0 60 -19 38 -29 121 -67 147 -67 10 0 23 -11 29 -24 7 -15 27 -29
61 -40 62 -20 58 -20 71 5 9 16 9 28 0 50 -12 28 -31 37 -110 53 -34 7 -110
66 -110 86 0 9 13 24 30 33 28 17 50 61 36 74 -3 4 -20 -4 -37 -16 -33 -24
-50 -28 -90 -17 -24 7 -25 6 -21 -28 5 -41 -9 -47 -32 -14 -29 41 -21 65 28
87 24 10 52 31 61 45 22 33 28 33 42 -4 10 -26 16 -30 48 -30 28 0 38 -5 42
-20 6 -22 3 -23 78 46 38 35 67 129 68 219 0 177 -76 320 -223 416 -75 49
-107 61 -97 35 10 -27 -7 -26 -35 1 -25 23 -38 28 -96 30 -38 2 -91 -4 -122
-13z m170 -33 c0 -17 -18 -31 -41 -31 -10 0 -12 33 -2 43 14 15 43 7 43 -12z
m-130 -63 c0 -7 -18 -28 -41 -48 -23 -20 -46 -52 -53 -75 -17 -47 -32 -55 -47
-23 -6 13 -24 29 -40 35 -37 14 -37 32 0 67 21 20 49 32 93 41 84 17 88 17 88
3z m283 -17 c34 -13 92 -74 138 -145 48 -73 49 -87 5 -48 -19 16 -55 37 -80
47 -44 17 -47 17 -66 0 -17 -15 -21 -16 -41 -2 -27 20 -59 67 -59 88 0 24 39
69 60 69 10 0 30 -4 43 -9z m-495 -313 c7 -7 12 -20 12 -31 0 -11 11 -22 30
-29 17 -5 37 -23 45 -38 10 -19 29 -32 56 -41 62 -20 68 -37 41 -111 -12 -35
-22 -76 -22 -92 0 -27 -1 -28 -22 -14 -30 20 -88 106 -112 165 -11 27 -38 69
-61 94 -49 52 -68 85 -60 99 9 14 79 12 93 -2z"></path>
<path d="M8640 2938 c1 -33 36 -107 55 -115 11 -4 28 5 48 26 l32 31 -45 40
c-52 45 -90 53 -90 18z"></path>
<path d="M6421 2824 c-25 -32 -26 -46 -6 -83 23 -46 66 -54 109 -20 35 27 37
90 4 113 -35 25 -83 20 -107 -10z"></path>
<path d="M6966 2828 c-53 -48 -25 -128 44 -128 38 0 80 39 80 75 0 33 -42 75
-74 75 -14 0 -36 -10 -50 -22z"></path>
<path d="M6716 2805 c-3 -9 -18 -15 -40 -15 -26 0 -36 -5 -41 -20 -10 -33 3
-56 43 -74 33 -15 41 -15 78 -2 68 24 126 56 121 69 -2 6 -30 20 -63 30 -32 9
-66 20 -75 23 -9 2 -19 -2 -23 -11z"></path>
<path d="M6225 2770 c-12 -20 6 -51 28 -48 31 4 31 52 0 56 -11 2 -24 -2 -28
-8z"></path>
<path d="M8646 2713 c-8 -21 17 -48 38 -40 9 4 16 18 16 32 0 20 -5 25 -24 25
-13 0 -27 -8 -30 -17z"></path>
<path d="M8753 2591 c-54 -25 -83 -71 -83 -131 0 -85 57 -143 140 -144 82 -1
145 61 145 144 0 108 -106 176 -202 131z m129 -50 c29 -26 33 -35 33 -81 0
-46 -4 -55 -33 -81 -46 -41 -99 -40 -141 2 -25 24 -31 39 -31 72 1 73 40 116
107 117 22 0 43 -9 65 -29z"></path>
<path d="M6954 2491 c-30 -13 -64 -59 -64 -88 0 -32 26 -80 49 -93 66 -35 151
18 151 94 0 56 -83 109 -136 87z m61 -57 c34 -35 -3 -103 -42 -78 -25 15 -28
52 -7 75 21 23 28 24 49 3z"></path>
<path d="M8718 2184 c-2 -31 -8 -39 -30 -45 -16 -4 -30 -3 -34 2 -3 5 -30 9
-60 9 -53 0 -54 -1 -54 -29 0 -26 4 -30 40 -36 26 -4 46 -3 55 5 7 6 29 10 47
8 30 -3 33 -6 36 -40 3 -35 6 -38 33 -38 27 0 29 3 29 35 0 28 4 35 20 35 11
0 21 5 22 10 4 29 1 35 -22 40 -18 5 -24 12 -21 26 8 44 6 49 -26 52 -30 3
-32 1 -35 -34z"></path>
<path d="M6981 2187 c-17 -21 -3 -49 23 -45 15 2 21 10 21 28 0 28 -26 38 -44
17z"></path>
<path d="M7665 2067 c-26 -26 -33 -43 -39 -90 -4 -31 -5 -71 -1 -87 4 -17 2
-30 -3 -30 -14 0 -72 -56 -72 -69 0 -8 53 -11 170 -11 115 0 170 3 170 11 0
13 -50 64 -70 71 -13 4 -13 8 -1 31 17 32 9 92 -19 148 -35 68 -84 77 -135 26z
m94 -11 c14 -17 5 -60 -15 -77 -11 -9 -19 -8 -35 7 -12 10 -25 26 -30 36 -19
36 53 67 80 34z m-57 -147 c21 -38 8 -52 -23 -23 -21 18 -27 68 -7 62 6 -2 20
-20 30 -39z"></path>
</g>
</svg><style>@media (prefers-color-scheme: light) { :root { filter: none; } }
</style></svg>